<?xml version="1.0" encoding="UTF-8" standalone="no"?>
<svg width="555px" height="200px" viewBox="0 0 555 200" version="1.1" xmlns="http://www.w3.org/2000/svg" xmlns:xlink="http://www.w3.org/1999/xlink" xmlns:sketch="http://www.bohemiancoding.com/sketch/ns">
    <!-- Generator: Sketch 3.3.3 (12081) - http://www.bohemiancoding.com/sketch -->
    <title>Slice 1</title>
    <desc>Created with Sketch.</desc>
    <defs>
        <filter x="-50%" y="-50%" width="200%" height="200%" filterUnits="objectBoundingBox" id="filter-1">
            <feOffset dx="0" dy="0" in="SourceAlpha" result="shadowOffsetOuter1"></feOffset>
            <feGaussianBlur stdDeviation="0.5" in="shadowOffsetOuter1" result="shadowBlurOuter1"></feGaussianBlur>
            <feColorMatrix values="0 0 0 0 0   0 0 0 0 0   0 0 0 0 0  0 0 0 0.294282156 0" in="shadowBlurOuter1" type="matrix" result="shadowMatrixOuter1"></feColorMatrix>
            <feMerge>
                <feMergeNode in="shadowMatrixOuter1"></feMergeNode>
                <feMergeNode in="SourceGraphic"></feMergeNode>
            </feMerge>
        </filter>
        <linearGradient x1="50.0005854%" y1="-0.000818514805%" x2="50.0005854%" y2="99.9993861%" id="linearGradient-2">
            <stop stop-color="#E6E6E6" offset="0%"></stop>
            <stop stop-color="#FFFFFF" offset="100%"></stop>
        </linearGradient>
        <filter x="-50%" y="-50%" width="200%" height="200%" filterUnits="objectBoundingBox" id="filter-3">
            <feOffset dx="0" dy="0" in="SourceAlpha" result="shadowOffsetOuter1"></feOffset>
            <feGaussianBlur stdDeviation="0.5" in="shadowOffsetOuter1" result="shadowBlurOuter1"></feGaussianBlur>
            <feColorMatrix values="0 0 0 0 0   0 0 0 0 0   0 0 0 0 0  0 0 0 0.261826313 0" in="shadowBlurOuter1" type="matrix" result="shadowMatrixOuter1"></feColorMatrix>
            <feMerge>
                <feMergeNode in="shadowMatrixOuter1"></feMergeNode>
                <feMergeNode in="SourceGraphic"></feMergeNode>
            </feMerge>
        </filter>
    </defs>
    <g id="Page-1" stroke="none" stroke-width="1" fill="none" fill-rule="evenodd" sketch:type="MSPage">
        <g id="LOGO" sketch:type="MSLayerGroup" transform="translate(27.000000, 42.000000)">
            <g id="Icon" sketch:type="MSShapeGroup">
                <path d="M88.318,78.05 C88.318,83.861 83.562,88.623 77.747,88.623 L20.707,88.623 C14.896,88.623 10.129,83.86 10.129,78.05 L10.129,10.781 C10.129,4.971 14.897,0.207 20.707,0.207 L77.747,0.207 C83.562,0.207 88.318,4.971 88.318,10.781 L88.318,78.05 L88.318,78.05 Z" id="Shape" fill="#5BC2A8"></path>
                <path d="M97.836,100.352 C98.669,105.869 94.795,110.387 89.205,110.387 L9.243,110.387 C3.655,110.387 -0.223,105.868 0.613,100.352 L6.311,61.518 L92.134,61.518 L97.836,100.352 L97.836,100.352 Z" id="Shape" fill="#FFFFFF" filter="url(#filter-1)"></path>
                <path d="M97.836,100.352 C98.669,105.869 94.795,110.387 89.205,110.387 L55.779,110.387 L6.311,61.518 L92.134,61.518 L97.836,100.352 L97.836,100.352 Z" id="Shape" fill="url(#linearGradient-2)"></path>
                <path d="M6.312,61.518 L0.614,22.684 C-0.222,17.175 3.656,12.659 9.244,12.659 L89.206,12.659 C94.796,12.659 98.67,17.176 97.837,22.684 L92.136,61.518 L6.312,61.518 L6.312,61.518 Z" id="Shape" fill="#BEC3C7" filter="url(#filter-3)"></path>
                <path d="M16.439,62.919 C16.439,81.804 31.847,96.057 50.498,96.057 C65.214,96.057 75.523,88.641 82.012,75.889 L73.09,75.889 C68.684,84.349 60.117,88.757 50.733,88.757 C36.019,88.757 24.548,77.399 24.548,62.684 C24.548,62.292 24.561,61.905 24.577,61.518 L16.475,61.518 C16.456,61.982 16.439,62.448 16.439,62.919 L16.439,62.919 Z" id="Shape" fill="#5D4A78"></path>
                <path d="M50.732,36.854 C60.23,36.854 68.683,41.948 73.089,50.288 L82.011,50.288 C76.796,37.317 64.286,29.554 50.497,29.554 C32.428,29.554 17.23,43.539 16.475,61.517 L24.577,61.517 C25.182,47.496 36.642,36.854 50.732,36.854 L50.732,36.854 Z" id="Shape" fill="#4A3966"></path>
            </g>
            <g id="Letter" transform="translate(104.000000, 8.000000)" fill="#4A3966" sketch:type="MSShapeGroup">
                <path d="M33.018,88.057 C15.181,88.057 0.002,73.115 0.002,55.272 C0.002,36.968 14.594,21.555 33.018,21.555 C51.091,21.555 66.27,36.732 66.27,54.806 C66.27,72.992 51.204,88.057 33.018,88.057 L33.018,88.057 Z M33.129,28.854 C18.764,28.854 8.113,41.138 8.113,55.151 C8.113,68.935 19.112,80.756 33.129,80.756 C47.733,80.756 58.156,68.699 58.156,54.456 C58.156,40.666 47.034,28.854 33.129,28.854 L33.129,28.854 Z" id="Shape"></path>
                <path d="M126.092,86.55 L126.092,76.7 L125.858,76.7 C122.152,84.462 113.924,88.056 105.585,88.056 C97.36,88.056 89.021,85.151 83.804,78.549 C79.288,72.878 78.241,65.231 78.241,58.161 L78.241,23.176 L86.352,23.176 L86.352,58.05 C86.352,71.134 91.106,80.756 105.584,80.756 C110.914,80.756 115.083,79.36 119.018,75.658 C124.584,70.322 125.622,64.075 125.622,56.66 L125.622,23.176 L133.735,23.176 L133.735,86.549 L126.092,86.549 L126.092,86.55 Z" id="Shape"></path>
                <path d="M196.681,86.55 L196.681,51.683 C196.681,45.647 195.17,38.591 190.652,34.297 C186.945,30.818 181.965,28.855 176.872,28.855 C171.768,28.855 166.787,30.818 163.079,34.297 C158.683,38.476 157.176,45.307 157.176,51.101 L157.176,86.55 L149.063,86.55 L149.063,23.177 L157.176,23.177 L157.176,31.289 L157.412,31.289 C161.582,24.8 169.344,21.555 176.872,21.555 C195.059,21.555 204.794,34.186 204.794,51.683 L204.794,86.55 L196.681,86.55 L196.681,86.55 Z" id="Shape"></path>
                <path d="M235.289,30.478 L235.289,86.55 L227.177,86.55 L227.177,30.478 L213.859,30.478 L213.859,23.177 L227.177,23.177 L227.177,0.822 L235.289,0.822 L235.289,23.177 L250.468,23.177 L250.468,30.478 L235.289,30.478 L235.289,30.478 Z" id="Shape"></path>
                <path d="M306.564,86.55 L306.564,76.7 L306.331,76.7 C302.623,84.462 294.397,88.056 286.058,88.056 C277.832,88.056 269.494,85.151 264.277,78.549 C259.757,72.878 258.713,65.231 258.713,58.161 L258.713,23.176 L266.826,23.176 L266.826,58.05 C266.826,71.134 271.579,80.756 286.058,80.756 C291.387,80.756 295.558,79.36 299.492,75.658 C305.055,70.322 306.095,64.075 306.095,56.66 L306.095,23.176 L314.208,23.176 L314.208,86.549 L306.564,86.549 L306.564,86.55 Z" id="Shape"></path>
                <path d="M362.437,88.057 C352.589,88.057 343.327,83.529 337.761,75.427 L337.535,75.427 L337.535,108.793 L329.422,108.793 L329.422,23.177 L337.535,23.177 L337.535,34.297 L337.761,34.297 C343.552,26.072 352.477,21.554 362.437,21.554 C381.087,21.554 396.5,35.685 396.5,54.683 C396.5,73.804 381.435,88.057 362.437,88.057 L362.437,88.057 Z M362.437,28.854 C348.07,28.854 337.071,40.787 337.071,54.918 C337.071,69.057 348.07,80.756 362.437,80.756 C377.265,80.756 388.387,69.868 388.387,55.037 C388.387,40.09 377.502,28.854 362.437,28.854 L362.437,28.854 Z" id="Shape"></path>
            </g>
        </g>
    </g>
</svg>