<?xml version="1.0" encoding="UTF-8" standalone="no"?>
<svg width="116px" height="116px" viewBox="0 0 116 116" version="1.1" xmlns="http://www.w3.org/2000/svg" xmlns:xlink="http://www.w3.org/1999/xlink">
    <!-- Generator: sketchtool 39.1 (31720) - http://www.bohemiancoding.com/sketch -->
    <title>2EBF1B17-F7D9-4071-A021-DEAB115B58AC</title>
    <desc>Created with sketchtool.</desc>
    <defs>
        <path d="M56.4851968,44.4453333 L56.4851968,3.03533333 C56.4851968,1.25133333 55.0308351,0.298 53.2262872,0.298 L52.9005638,0.298 C51.0953457,0.298 49.042484,1.25133333 49.042484,3.03533333 L49.042484,7.656 L44.789984,7.656 L44.789984,7.28933333 C44.7851794,5.74619312 43.5237585,4.49905725 41.9724096,4.50366667 L41.2284734,4.50366667 C39.6772006,4.4992415 38.4158883,5.74626991 38.4108989,7.28933333 L38.4108989,7.656 L32.0314787,7.656 L32.0314787,7.28933333 C32.0266741,5.74619312 30.7652532,4.49905725 29.2139043,4.50366667 L28.4692979,4.50366667 C26.9180464,4.49942539 25.6567469,5.74629293 25.6513883,7.28933333 L25.6513883,7.656 L24.5884309,7.656 L24.5884309,7.28933333 C24.5836262,5.74619312 23.3222053,4.49905725 21.7708564,4.50366667 L21.0269202,4.50366667 C19.4757234,4.49942566 18.2145198,5.74634668 18.2093457,7.28933333 L18.2093457,7.656 L13.9565106,7.656 L13.9565106,3.03533333 C13.9565106,1.25133333 12.8841702,0.298 11.0796223,0.298 L10.7532287,0.298 C8.94901596,0.298 6.51413298,0.298 6.51413298,3.03533333 L6.51413298,44.446 L2.91207447,44.446 C1.64905851,44.446 0.134712766,44.511 0.134712766,46.6413333 L0.134712766,46.9643333 C0.134712766,48.213 0.134712766,49.702 2.91207447,49.702 L61.0681117,49.702 C62.3314628,49.702 62.8652872,48.213 62.8652872,46.9643333 L62.8652872,46.6413333 C62.8659574,45.393 62.3297872,44.4453333 61.0677766,44.4453333 L56.4851968,44.4453333 Z M49.042484,44.4453333 L13.9568457,44.4453333 L13.9568457,37.088 L17.1467234,37.088 L17.1467234,37.4546667 C17.1490306,38.1956826 17.4471784,38.9054365 17.9755769,39.4277886 C18.5039754,39.9501407 19.2193403,40.2423021 19.9642979,40.24 L20.7075638,40.24 C22.2586516,40.2444252 23.5198138,38.997546 23.5248032,37.4546667 L23.5248032,37.088 L24.5884309,37.088 L24.5884309,37.4546667 C24.590738,38.1956826 24.8888858,38.9054365 25.4172843,39.4277886 C25.9456828,39.9501407 26.6610478,40.2423021 27.4060053,40.24 L28.1489362,40.24 C29.7001333,40.2444257 30.9614872,38.9976535 30.9668457,37.4546667 L30.9668457,37.088 L37.3459309,37.088 L37.3459309,37.4546667 C37.3507355,38.9976228 38.6120064,40.2446094 40.1631702,40.24 L40.9064362,40.24 C42.4576,40.2446094 43.7188709,38.9976228 43.7236755,37.4546667 L43.7236755,37.088 L49.0408085,37.088 L49.0408085,44.446 L49.0428191,44.446 L49.0428191,44.446 L49.042484,44.4453333 Z M49.042484,33.934 L43.7263564,33.934 L43.7263564,33.5673333 C43.7213668,32.0243469 42.4603135,30.7772769 40.909117,30.7813333 L40.165516,30.7813333 C38.6140034,30.7769079 37.3524453,32.0240321 37.3472713,33.5673333 L37.3472713,33.934 L30.9681862,33.934 L30.9681862,33.5673333 C30.9657904,32.8259636 30.6674162,32.1159057 30.1387035,31.593366 C29.6099907,31.0708263 28.8942493,30.7786092 28.1489362,30.781 L27.4043298,30.781 C25.8530026,30.7767592 24.5917448,32.023883 24.5867553,33.567 L24.5867553,33.9336667 L23.5244681,33.9336667 L23.5244681,33.567 C23.5196632,32.0239368 22.2585013,30.7767595 20.7072287,30.781 L19.9626223,30.781 C18.4112405,30.776759 17.1498868,32.0238293 17.1447128,33.567 L17.1447128,33.9336667 L13.9548351,33.9336667 L13.9548351,23.4233333 L19.2709628,23.4233333 L19.2709628,23.79 C19.2759519,25.3331404 20.5375232,26.5801274 22.0888723,26.5753333 L22.8318032,26.5753333 C23.5767607,26.5776354 24.2921257,26.285474 24.8205242,25.7631219 C25.3489227,25.2407698 25.6470705,24.531016 25.6493777,23.79 L25.6493777,23.4233333 L32.0294681,23.4233333 L32.0294681,23.79 C32.0344574,25.3330099 33.2958241,26.5799429 34.8470426,26.5753333 L35.5903085,26.5753333 C36.335235,26.5776354 37.0505655,26.2854633 37.5789108,25.7631017 C38.107256,25.24074 38.4053294,24.5309854 38.4075479,23.79 L38.4075479,23.4233333 L49.0401383,23.4233333 L49.0401383,33.9333333 L49.042484,33.9333333 L49.042484,33.9333333 L49.042484,33.934 Z M49.042484,20.2693333 L38.4108989,20.2693333 L38.4108989,19.9026667 C38.4085032,19.1616506 38.1102702,18.4519317 37.5818088,17.9296421 C37.0533474,17.4073525 36.337947,17.1152759 35.5929894,17.1176667 L34.8487181,17.1176667 C33.2978368,17.1134254 32.0368373,18.3599945 32.0314787,19.9026667 L32.0314787,20.2693333 L25.6513883,20.2693333 L25.6513883,19.9026667 C25.6463992,18.3597103 24.3849779,17.1128726 22.8338138,17.1176667 L22.0898777,17.1176667 C20.5388656,17.113241 19.2776617,18.3598639 19.2723032,19.9026667 L19.2723032,20.2693333 L13.9561755,20.2693333 L13.9561755,10.809 L18.2090106,10.809 L18.2090106,11.1756667 C18.214,12.7187301 19.4753123,13.9657585 21.0265851,13.9613333 L21.7698511,13.9613333 C23.3212546,13.9659429 24.5827714,12.7188606 24.5877606,11.1756667 L24.5877606,10.809 L25.6507181,10.809 L25.6507181,11.1756667 C25.6557075,12.7187301 26.9170197,13.9657585 28.4682926,13.9613333 L29.2115585,13.9613333 C29.956516,13.9635468 30.6718455,13.6713004 31.2001811,13.1488859 C31.7285167,12.6264713 32.0265793,11.9166826 32.0287979,11.1756667 L32.0287979,10.809 L38.4085532,10.809 L38.4085532,11.1756667 C38.4135427,12.7185996 39.6746504,13.9655741 41.2257926,13.9613333 L41.9690585,13.9613333 C43.5205167,13.9659432 44.7821293,12.7189144 44.7873032,11.1756667 L44.7873032,10.809 L49.0401383,10.809 L49.0401383,20.2693333 L49.042484,20.2693333 L49.042484,20.2693333 Z" id="path-1"></path>
    </defs>
    <g id="Page-4" stroke="none" stroke-width="1" fill="none" fill-rule="evenodd">
        <g id="2.0" transform="translate(-662.000000, -332.000000)">
            <g id="top">
                <g id="Group-12" transform="translate(386.000000, 332.000000)">
                    <g id="Group-16">
                        <g id="bookkeeping" transform="translate(276.000000, 0.000000)">
                            <g id="Group-14">
                                <path d="M58,116 C90.0325155,116 116,90.0325155 116,58 C116,25.9674845 90.0325155,0 58,0 C25.9674845,0 0,25.9674845 0,58 C0,90.0325155 25.9674845,116 58,116 Z" id="Oval-2" fill-opacity="0.1" fill="#D8D8D8"></path>
                                <g id="Group-11" transform="translate(27.000000, 33.000000)">
                                    <mask id="mask-2" fill="white">
                                        <use xlink:href="#path-1"></use>
                                    </mask>
                                    <use id="Forma_1-2" fill="#FFFFFF" xlink:href="#path-1"></use>
                                    <rect id="Rectangle_2_copy_8" fill="#5BC2A7" mask="url(#mask-2)" x="37.1968085" y="29" width="6.70212766" height="12.6666667"></rect>
                                    <rect id="Rectangle-path" fill="#5BC2A7" mask="url(#mask-2)" x="18.0957447" y="3.33333333" width="6.70212766" height="12.6666667"></rect>
                                    <rect id="Rectangle_2_copy" fill="#5BC2A7" mask="url(#mask-2)" x="25.4680851" y="3.33333333" width="6.70212766" height="12.6666667"></rect>
                                    <rect id="Rectangle_2_copy_2" fill="#5BC2A7" mask="url(#mask-2)" x="38.2021277" y="3.33333333" width="6.70212766" height="12.6666667"></rect>
                                    <rect id="Rectangle_2_copy_3" fill="#5BC2A7" mask="url(#mask-2)" x="31.8351064" y="15.3333333" width="6.70212766" height="12.6666667"></rect>
                                    <rect id="Rectangle_2_copy_4" fill="#5BC2A7" mask="url(#mask-2)" x="19.1010638" y="15.3333333" width="6.70212766" height="12.6666667"></rect>
                                    <rect id="Rectangle_2_copy_5" fill="#5BC2A7" mask="url(#mask-2)" x="24.462766" y="29" width="6.70212766" height="12.6666667"></rect>
                                    <rect id="Rectangle_2_copy_7" fill="#5BC2A7" mask="url(#mask-2)" x="17.0904255" y="28" width="6.36702128" height="12.6666667"></rect>
                                </g>
                            </g>
                        </g>
                    </g>
                </g>
            </g>
        </g>
    </g>
</svg>