<?xml version="1.0" encoding="UTF-8" standalone="no"?>
<svg width="50px" height="50px" viewBox="0 0 50 50" version="1.1" xmlns="http://www.w3.org/2000/svg" xmlns:xlink="http://www.w3.org/1999/xlink">
    <!-- Generator: sketchtool 39.1 (31720) - http://www.bohemiancoding.com/sketch -->
    <title>A7D90792-3512-47FE-8471-75D7DB4C09DF</title>
    <desc>Created with sketchtool.</desc>
    <defs>
        <polygon id="path-1" points="0 24.8737374 21.9136725 24.8737374 21.9136725 0.0414141414 0 0.0414141414"></polygon>
    </defs>
    <g id="Page-4" stroke="none" stroke-width="1" fill="none" fill-rule="evenodd">
        <g id="2.0" transform="translate(-579.000000, -4426.000000)">
            <g id="pricing" transform="translate(0.000000, 3105.000000)">
                <g id="Group-7" transform="translate(272.000000, 1320.000000)">
                    <g id="sales-forecast-card" transform="translate(233.000000, 1.000000)">
                        <g id="budgeting-icon" transform="translate(74.000000, 0.000000)">
                            <path d="M25,50 C38.8071187,50 50,38.8071187 50,25 C50,11.1928813 38.8071187,0 25,0 C11.1928813,0 0,11.1928813 0,25 C0,38.8071187 11.1928813,50 25,50 Z" id="Oval" fill="#5D4A78"></path>
                            <g id="forecasting" transform="translate(14.000000, 12.000000)">
                                <polygon id="Fill-1" fill="#2DBEA7" points="2.30897076 22.6790404 5.51878363 22.6790404 5.51878363 19.9885101 2.30897076 19.9885101"></polygon>
                                <polygon id="Fill-2" fill="#2DBEA7" points="6.05385965 22.6790404 9.26367251 22.6790404 9.26367251 17.2979798 6.05385965 17.2979798"></polygon>
                                <polygon id="Fill-3" fill="#2DBEA7" points="9.79861988 22.6790404 13.0085614 22.6790404 13.0085614 13.459596 9.79861988 13.459596"></polygon>
                                <polygon id="Fill-4" fill="#2DBEA7" points="13.5436374 22.6790404 16.7534503 22.6790404 16.7534503 9.62121212 13.5436374 9.62121212"></polygon>
                                <polygon id="Fill-5" fill="#2DBEA7" points="17.2883977 22.6790404 20.4983392 22.6790404 20.4983392 5.78282828 17.2883977 5.78282828"></polygon>
                                <g id="Group-21" transform="translate(0.000000, 0.084848)">
                                    <path d="M2.30904795,17.8926515 C2.30904795,17.8926515 3.88129121,16.9860429 5.56005861,15.7424826 C7.7098182,14.1500311 9.97936175,11.975069 10.4850466,11.4744772 C11.53949,10.430654 11.5490115,10.4679465 14.9351809,6.53374285 C15.7364502,5.60279225 14.9351809,6.53374272 16.7039187,4.18016619 C18.4726565,1.82658967 18.2066854,2.07106061 18.2066854,2.07106061 C15.7549441,5.73485369 9.97842807,13.4612121 2.30904795,17.8926515 Z" id="Stroke-6" stroke="#FFFFFF"></path>
                                    <polygon id="Fill-8" fill="#FFFFFF" points="16.4972339 1.58623737 19.4952807 0.0414141414 19.3599357 3.36199495"></polygon>
                                    <polygon id="Fill-10" fill="#FFFFFF" points="1.25061637 23.697298 1.25061637 3.4185101 0.794405848 3.4185101 0.794405848 23.697298 0.794405848 24.144899 1.25061637 24.144899 21.9136339 24.144899 21.9136339 23.697298"></polygon>
                                    <mask id="mask-2" fill="white">
                                        <use xlink:href="#path-1"></use>
                                    </mask>
                                    <g id="Clip-13"></g>
                                    <polygon id="Fill-12" fill="#FFFFFF" mask="url(#mask-2)" points="2.88444444 24.8737374 3.33217172 24.8737374 3.33217172 23.7138889 2.88444444 23.7138889"></polygon>
                                    <polygon id="Fill-14" fill="#FFFFFF" mask="url(#mask-2)" points="8.37891228 24.8737374 8.82651329 24.8737374 8.82651329 23.7138889 8.37891228 23.7138889"></polygon>
                                    <polygon id="Fill-15" fill="#FFFFFF" mask="url(#mask-2)" points="13.8732515 24.8737374 14.3208525 24.8737374 14.3208525 23.7138889 13.8732515 23.7138889"></polygon>
                                    <polygon id="Fill-16" fill="#FFFFFF" mask="url(#mask-2)" points="19.3677193 24.8737374 19.815194 24.8737374 19.815194 23.7138889 19.3677193 23.7138889"></polygon>
                                    <polygon id="Fill-17" fill="#FFFFFF" mask="url(#mask-2)" points="0 5.91717172 1.18169591 5.91717172 1.18169591 5.46957071 0 5.46957071"></polygon>
                                    <polygon id="Fill-18" fill="#FFFFFF" mask="url(#mask-2)" points="0 11.3093434 1.18169591 11.3093434 1.18169591 10.8617424 0 10.8617424"></polygon>
                                    <polygon id="Fill-19" fill="#FFFFFF" mask="url(#mask-2)" points="0 16.7013889 1.18169591 16.7013889 1.18169591 16.2537879 0 16.2537879"></polygon>
                                    <polygon id="Fill-20" fill="#FFFFFF" mask="url(#mask-2)" points="0 22.0938131 1.18169591 22.0938131 1.18169591 21.6462121 0 21.6462121"></polygon>
                                </g>
                            </g>
                        </g>
                    </g>
                </g>
            </g>
        </g>
    </g>
</svg>