<?xml version="1.0" encoding="UTF-8" standalone="no"?>
<svg width="150px" height="150px" viewBox="0 0 150 150" version="1.1" xmlns="http://www.w3.org/2000/svg" xmlns:xlink="http://www.w3.org/1999/xlink" xmlns:sketch="http://www.bohemiancoding.com/sketch/ns">
    <!-- Generator: Sketch 3.3.3 (12081) - http://www.bohemiancoding.com/sketch -->
    <title>Oval 1</title>
    <desc>Created with Sketch.</desc>
    <defs></defs>
    <g id="Page-1" stroke="none" stroke-width="1" fill="none" fill-rule="evenodd" sketch:type="MSPage">
        <circle id="Oval-1" fill="#40B69F" sketch:type="MSShapeGroup" cx="75" cy="75" r="75"></circle>
        <g id="noun_32746_cc" sketch:type="MSLayerGroup" transform="translate(30.000000, 29.000000)" fill="#FFFFFF">
            <path d="M87.853,69.803 C87.449,69.392 87.063,68.986 86.67,68.575 L84.419,66.28 C75.356,57.371 71.798,53.721 71.424,53.466 C71.013,53.073 70.607,52.687 70.196,52.283 C65.74,48.09 62.64,51.436 58.601,57.539 C58.23,58.103 57.884,58.633 57.562,59.131 C57.551,59.148 57.541,59.164 57.53,59.181 C57.412,59.364 57.311,59.521 57.199,59.696 C52.647,66.764 53.026,66.921 51.436,66.545 C51.37,66.533 51.31,66.514 51.245,66.495 C46.076,64.879 46.673,64.566 36.641,54.361 C26.436,44.33 26.122,44.926 24.507,39.757 C24.488,39.692 24.47,39.632 24.457,39.566 C24.081,37.975 24.238,38.355 31.306,33.803 L31.306,33.804 C31.482,33.691 31.648,33.583 31.82,33.472 C31.837,33.461 31.853,33.45 31.87,33.44 C32.368,33.117 32.898,32.771 33.462,32.401 C39.565,28.362 42.911,25.262 38.718,20.806 C38.314,20.395 37.928,19.989 37.535,19.578 C37.28,19.204 33.629,15.647 24.721,6.583 L22.425,4.33 C22.014,3.937 21.608,3.551 21.197,3.147 C16.238,-1.519 11.65,1.828 6.887,9.248 C2.174,16.588 0.621,21.049 0.609,21.085 C-1.523,27.822 2.5,36.06 4.193,38.894 C10.046,48.752 12.327,52.886 25.324,65.676 C38.115,78.673 42.248,80.954 52.106,86.807 C54.94,88.5 63.177,92.523 69.914,90.392 C69.95,90.379 74.411,88.827 81.751,84.114 C89.171,79.35 92.519,74.762 87.853,69.803 L87.853,69.803 Z" id="Shape" sketch:type="MSShapeGroup"></path>
        </g>
    </g>
</svg>