<?xml version="1.0" encoding="UTF-8" standalone="no"?>
<svg width="70px" height="58px" viewBox="0 0 70 58" version="1.1" xmlns="http://www.w3.org/2000/svg" xmlns:xlink="http://www.w3.org/1999/xlink">
    <!-- Generator: sketchtool 39.1 (31720) - http://www.bohemiancoding.com/sketch -->
    <title>60C43E7E-B281-4CBE-9953-9A2D1F809C2A</title>
    <desc>Created with sketchtool.</desc>
    <defs>
        <polygon id="path-1" points="9.87179487 9.0625 9.87179487 -0.000262167803 0.431666667 -0.000262167803 0.431666667 9.0625 9.87179487 9.0625"></polygon>
    </defs>
    <g id="Page-4" stroke="none" stroke-width="1" fill="none" fill-rule="evenodd">
        <g id="2.0" transform="translate(-844.000000, -2414.000000)">
            <g id="framework" transform="translate(0.000000, 2046.000000)">
                <g id="tree" transform="translate(452.000000, 261.000000)">
                    <g id="e-sig" transform="translate(306.000000, 107.000000)">
                        <g id="e-signatures" transform="translate(86.000000, 0.000000)">
                            <path d="M0,3.48 C0,1.55784375 1.54117241,0 3.44275862,0 L37.6551724,0 L52,12.18 L52,54.52 C52,56.4421562 50.4588276,58 48.5572414,58 L3.44275862,58 C1.54117241,58 0,56.4421562 0,54.52 L0,3.48 Z" id="Fill-1" fill="#F3F4F4"></path>
                            <path d="M38,0 L38,8.57142857 C38,10.4651786 39.504125,12 41.36,12 L52,12 L38,0 Z" id="Fill-3" fill="#CFD2D3"></path>
                            <path d="M68,31.199348 L48.6459984,52.9042502 L43.2814996,54 C43.1263244,53.2592369 42.7402119,52.5574137 42.1249878,52.017689 C41.5097637,51.4779643 40.7603586,51.1827457 40,51.1202608 L40.441793,45.7039966 L59.7957946,24 L68,31.199348 Z" id="Fill-5" fill="#CFD2D3"></path>
                            <path d="M67.9883868,31.0535478 C68.0029033,31.0660307 68.0038106,31.08743 67.9911086,31.1016961 L49.1912982,51.9864677 C49.1613579,52.0203499 49.1132719,51.9846845 49.1350467,51.9445609 C49.7256879,50.8745986 49.5106618,49.51218 48.5425909,48.6704764 C47.5209903,47.7824077 46.0158078,47.7832993 44.9996509,48.615195 C44.9706178,48.6392691 44.9316047,48.605387 44.9524722,48.5741798 C45.6692257,47.4819266 45.4868619,46.0142951 44.4652612,45.1253348 C43.4863029,44.2738231 42.0627759,44.239941 41.0520627,44.9710819 C41.0194005,44.995156 40.9822019,44.9577073 41.0094204,44.9273917 L59.8373566,24.0114129 C59.8500585,23.9971468 59.8718333,23.9962551 59.8863499,24.008738 L67.9883868,31.0535478 Z" id="Fill-7" fill="#31BCA5"></path>
                            <polygon id="Fill-9" fill="#F3F4F4" points="60.1563076 23 68 30.5731823 66.8436924 32 59 24.4268177"></polygon>
                            <g id="Group-13" transform="translate(60.000000, 21.000000)">
                                <mask id="mask-2" fill="white">
                                    <use xlink:href="#path-1"></use>
                                </mask>
                                <g id="Clip-12"></g>
                                <path d="M8.07333333,1.42371875 L7.9925641,1.35121875 C5.7875641,-0.61896875 2.41858974,-0.41053125 0.467564103,1.816125 L0.431666667,1.85690625 L8.49782051,9.0625 L8.53371795,9.02171875 C10.4847436,6.7950625 10.2783333,3.393 8.07333333,1.42371875" id="Fill-11" fill="#93A3A4" mask="url(#mask-2)"></path>
                            </g>
                            <path d="M44,54.1903687 L40,55 L40.3297601,51 C41.180194,51.069225 42.0183767,51.3962879 42.7064829,51.9942313 C43.3945891,52.5921746 43.8264421,53.3697015 44,54.1903687" id="Fill-14" fill="#3E3E3F"></path>
                            <path d="M31,36 C31,36.55 30.6029412,37 30.1176471,37 L16.8823529,37 C16.3970588,37 16,36.55 16,36 C16,35.45 16.3970588,35 16.8823529,35 L30.1176471,35 C30.6029412,35 31,35.45 31,36" id="Fill-16" fill="#CFD2D3"></path>
                            <path d="M20.6604668,51 L17.2639208,47.440141 C16.9120264,47.0722701 16.9120264,46.474244 17.2639208,46.106373 C17.6158152,45.7375588 18.1855061,45.7375588 18.5365006,46.106373 L20.5398687,48.2060672 L24.4089071,43.3397948 C24.7275021,42.9389098 25.294493,42.885144 25.676087,43.2190576 C26.0576809,43.5529713 26.1098801,44.1472244 25.7912851,44.5471661 L20.6604668,51 Z" id="Fill-18" fill="#5C4877"></path>
                            <path d="M43.0967742,19 L29.5483871,19 L25.0322581,19 L21.4193548,19 L16.9032258,19 C16.4064516,19 16,19.45 16,20 C16,20.55 16.4064516,21 16.9032258,21 L21.4193548,21 L25.0322581,21 L29.5483871,21 L43.0967742,21 C43.5935484,21 44,20.55 44,20 C44,19.45 43.5935484,19 43.0967742,19" id="Fill-20" fill="#CFD2D3"></path>
                            <path d="M43.0967742,24 L29.5483871,24 L25.0322581,24 L21.4193548,24 L16.9032258,24 C16.4064516,24 16,24.45 16,25 C16,25.55 16.4064516,26 16.9032258,26 L21.4193548,26 L25.0322581,26 L29.5483871,26 L43.0967742,26 C43.5935484,26 44,25.55 44,25 C44,24.45 43.5935484,24 43.0967742,24" id="Fill-22" fill="#CFD2D3"></path>
                            <path d="M43.0967742,30 L29.5483871,30 L25.0322581,30 L21.4193548,30 L16.9032258,30 C16.4064516,30 16,30.45 16,31 C16,31.55 16.4064516,32 16.9032258,32 L21.4193548,32 L25.0322581,32 L29.5483871,32 L43.0967742,32 C43.5935484,32 44,31.55 44,31 C44,30.45 43.5935484,30 43.0967742,30" id="Fill-24" fill="#CFD2D3"></path>
                        </g>
                    </g>
                </g>
            </g>
        </g>
    </g>
</svg>