<?xml version="1.0" encoding="UTF-8" standalone="no"?>
<svg width="60px" height="60px" viewBox="0 0 60 60" version="1.1" xmlns="http://www.w3.org/2000/svg" xmlns:xlink="http://www.w3.org/1999/xlink">
    <!-- Generator: sketchtool 39.1 (31720) - http://www.bohemiancoding.com/sketch -->
    <title>7AA80D85-8963-47AF-B55B-68DE64177328</title>
    <desc>Created with sketchtool.</desc>
    <defs></defs>
    <g id="Page-4" stroke="none" stroke-width="1" fill="none" fill-rule="evenodd">
        <g id="2.0" transform="translate(-1078.000000, -888.000000)">
            <g id="how-it-works" transform="translate(0.000000, 674.000000)">
                <g id="Group" transform="translate(208.000000, 213.000000)">
                    <g id="encrypted-platform" transform="translate(776.000000, 1.000000)">
                        <g id="Group-Copy" transform="translate(94.000000, 0.000000)">
                            <path d="M30,60 C46.5685425,60 60,46.5685425 60,30 C60,13.4314575 46.5685425,0 30,0 C13.4314575,0 0,13.4314575 0,30 C0,46.5685425 13.4314575,60 30,60 Z" id="Oval" fill="#5D4A78"></path>
                            <path d="M43.8075726,17.9780619 C35.0292552,17.9780619 31.1039767,13.4409252 31.0661701,13.3953439 C30.8381307,13.122456 30.3724502,13.122456 30.1444108,13.3953439 C30.1060041,13.4421247 26.2215327,17.9780619 17.4030083,17.9780619 C17.071751,17.9780619 16.8029046,18.2461518 16.8029046,18.5778156 L16.8029046,30.024115 C16.8029046,36.2813453 19.6173911,42.2279032 24.331806,45.9301828 C26.2323345,47.4235695 28.2852894,48.5037259 30.4342609,49.1406643 C30.4906706,49.1568577 30.5476805,49.1652542 30.6052905,49.1652542 C30.6629004,49.1652542 30.7199103,49.1568577 30.77632,49.1406643 C32.9252915,48.5037259 34.9782464,47.4235695 36.8787749,45.9301828 C41.5931898,42.2279032 44.4076763,36.2813453 44.4076763,30.024115 L44.4076763,18.5778156 C44.4076763,18.2461518 44.1388299,17.9780619 43.8075726,17.9780619 L43.8075726,17.9780619 L43.8075726,17.9780619 Z M22.3754678,35.3457295 C22.3178579,35.3625226 22.2602479,35.3709192 22.2038382,35.3709192 C21.9451935,35.3709192 21.7063522,35.2029881 21.6289388,34.9420953 C21.1602578,33.3695411 20.9628237,31.852764 21.0078314,30.1674561 L21.0078314,30.1668563 C21.0846447,27.3066309 21.9031862,25.2032947 23.5828766,23.5485743 C23.8187173,23.3152701 24.198583,23.3188686 24.4314232,23.5545718 C24.6642635,23.790275 24.661263,24.1699191 24.4254222,24.4026235 C22.9803724,25.8258391 22.2758506,27.6676827 22.2074388,30.1998428 C22.1660316,31.7544044 22.347263,33.1524302 22.7787376,34.6002357 C22.8735539,34.9175054 22.6929227,35.2515682 22.3754678,35.3457295 L22.3754678,35.3457295 L22.3754678,35.3457295 Z M27.6047718,39.5901864 C27.5927697,39.9140534 27.3269238,40.1689488 27.004668,40.1689488 C26.9980669,40.1689488 26.9908657,40.1689488 26.9836644,40.168349 C26.6524072,40.1575534 26.3931623,39.8792677 26.4045643,39.5482037 C26.4843781,37.2763367 26.448972,34.1582172 25.8296649,32.2030201 C25.8110617,32.1454438 25.7978594,32.1028613 25.7900581,32.0728736 C25.6214289,31.4497295 25.5446157,30.807993 25.5632189,30.1674561 L25.5632189,30.1656568 C25.6106271,28.5049388 26.339153,26.3512233 27.8598159,25.2842615 C28.1316629,25.09294 28.5055275,25.1595127 28.6957604,25.4306014 C28.8865934,25.7010903 28.820582,26.0753366 28.5499352,26.2654585 C27.3755322,27.0895201 26.8006328,28.8827837 26.7628262,30.1998428 L26.7628262,30.2010423 C26.7478237,30.7240275 26.8108345,31.2500115 26.9500586,31.7634007 L26.9740628,31.8407689 C27.5123558,33.5410706 27.7247925,36.1487997 27.6047718,39.5901864 L27.6047718,39.5901864 L27.6047718,39.5901864 Z M32.3533926,40.1899401 C32.3419907,40.5138071 32.0755446,40.7687025 31.753889,40.7687025 C31.7466878,40.7687025 31.7394865,40.7687025 31.7322853,40.7681027 C31.401028,40.7573071 31.1417832,40.4796212 31.1537853,40.1479574 C31.4082293,32.8369598 30.498472,30.4967209 30.4894704,30.4739302 C30.3658491,30.1686556 30.5110742,29.8189992 30.8153268,29.6930509 C31.1207796,29.5647036 31.4682396,29.7086445 31.5966618,30.0115201 C31.6386691,30.1104795 32.6204388,32.5250879 32.3533926,40.1899401 L32.3533926,40.1899401 L32.3533926,40.1899401 Z M34.2167147,39.564397 C33.8854575,39.564397 33.616611,39.3005054 33.616611,38.9688416 C33.616611,38.782918 33.6142106,38.6215842 33.6112101,38.4584512 C33.6082095,38.2839229 33.605209,38.1081951 33.605209,37.9078773 L33.6058091,37.7663354 C33.6076094,37.4358712 33.8764559,37.1701803 34.2059129,37.1701803 L34.2095135,37.1701803 C34.5413709,37.1725793 34.8078169,37.4424684 34.8060166,37.7735325 L34.8060166,37.9078773 C34.8060166,38.1003983 34.808417,38.2707283 34.8114175,38.4380596 C34.814418,38.6083896 34.8168185,38.7757209 34.8168185,38.9598453 C34.8168185,39.2915091 34.547972,39.564397 34.2167147,39.564397 L34.2167147,39.564397 L34.2167147,39.564397 Z M34.2803257,36.5152492 L34.2665233,36.5152492 C33.9418672,36.5152492 33.674221,36.2561556 33.6670197,35.9292899 C33.5980078,32.9365189 33.2967557,31.2368169 33.0561141,30.3377861 C33.0561141,30.3377861 33.0561141,30.3377861 33.0561141,30.3371864 C32.9336929,29.8801741 32.8286748,29.6324758 32.7782661,29.5125251 C32.4824149,28.8144117 31.8024974,28.3639967 31.0445664,28.3639967 C30.7943231,28.3639967 30.550681,28.4125768 30.319041,28.5097369 C29.6373231,28.7940201 29.1830446,29.4573477 29.1632412,30.1998428 C29.1560399,30.4475411 29.1980472,30.6904413 29.2874627,30.9219462 C29.5191027,31.6200595 30.2128226,34.2307874 30.0045866,40.1899401 C29.9931846,40.5138071 29.7273387,40.7687025 29.405083,40.7687025 C29.3984818,40.7687025 29.3912806,40.7687025 29.3840794,40.7681027 C29.0528221,40.7573071 28.7935773,40.4790214 28.8049793,40.1479574 C29.0114149,34.2391839 28.3056929,31.7729967 28.1622682,31.3381753 C28.0212438,30.9741248 27.9522318,30.5746889 27.9636338,30.1668563 C27.9966395,28.9535546 28.7395679,27.8680004 29.8569611,27.4025915 C30.2356266,27.2448563 30.6352956,27.1644893 31.0445664,27.1644893 C32.2855809,27.1644893 33.3999735,27.9027861 33.8830571,29.0447172 C33.9442676,29.1886581 34.0714896,29.4891347 34.2161146,30.0283132 L34.2161146,30.028913 C34.5851784,31.409546 34.8102173,33.440312 34.8666271,35.902301 C34.8744284,36.233365 34.6121831,36.5080522 34.2803257,36.5152492 L34.2803257,36.5152492 L34.2803257,36.5152492 Z M37.2058314,38.390679 C37.1944295,38.714546 36.9285835,38.9694414 36.6063278,38.9694414 C36.5997267,38.9694414 36.5925254,38.9694414 36.5853242,38.9688416 C36.2540669,38.958046 35.9948221,38.6803601 36.0062241,38.3486963 C36.1610508,33.9237135 35.8651997,31.7208182 35.5903522,30.2964031 L35.5903522,30.2946039 C35.4691312,29.6678613 35.2969015,29.0956962 35.0640612,28.5451223 C34.3409362,26.836424 32.8622806,25.77486 31.2053942,25.77486 C30.8897396,25.77486 30.5752853,25.809046 30.2698325,25.8762184 C29.9457765,25.9439905 29.6259212,25.7430731 29.5545088,25.4198058 C29.4830965,25.0959388 29.6877318,24.7762701 30.0117879,24.7048994 C30.4012552,24.6185349 30.8033247,24.5753526 31.2053942,24.5753526 C33.3525654,24.5753526 35.2548942,25.9170016 36.1694523,28.0779142 C36.4352982,28.7070558 36.6315322,29.3577886 36.7689559,30.0672972 L36.7689559,30.0690965 C37.1950296,32.2773896 37.3300529,34.8437357 37.2058314,38.390679 L37.2058314,38.390679 L37.2058314,38.390679 Z M39.0457495,35.2863539 L39.0061426,36.5866199 C38.9977412,36.9122862 38.730695,37.1701803 38.406639,37.1701803 L38.3904362,37.1701803 C38.0585788,37.1605842 37.7975337,36.8846975 37.8065353,36.5542332 L37.8461421,35.2485694 C37.9127536,33.1266408 37.9607619,31.5930706 37.7495254,30.2784105 L37.7495254,30.2778108 C37.6439072,29.6216802 37.4974818,29.0225263 37.301848,28.4455632 C36.468904,25.9925706 33.7126276,23.8472516 31.2828076,23.7608871 C30.3316432,23.7231026 29.4146846,23.8934327 28.5445342,24.2568834 C26.1399186,25.2596716 24.5712474,27.5879154 24.5496437,30.1878477 C24.5436426,30.800796 24.626457,31.4125448 24.7950861,32.0075004 C24.9067054,32.4009389 25.0207251,32.821966 25.0849362,33.2597862 C25.2217599,34.1918034 25.2583662,35.7721544 25.2043568,38.3822825 C25.1971556,38.7085485 24.9301094,38.9694414 24.6042531,38.9694414 L24.5916509,38.9694414 C24.2603937,38.9622443 23.9975482,38.6881569 24.0041494,38.3576926 C24.0569585,35.8159364 24.0239528,34.2979598 23.8973309,33.433115 C23.8439217,33.0666655 23.7449046,32.7044142 23.6404865,32.3343662 C23.440652,31.6296556 23.3428351,30.9045534 23.3494362,30.1776519 C23.3752407,27.0967172 25.2331618,24.3384499 28.0824544,23.1497381 C29.1140327,22.7197147 30.2038211,22.5205964 31.3254149,22.5625792 C34.2539212,22.6663366 37.4440726,25.1331235 38.4378444,28.0605213 C38.6556821,28.7010583 38.8183102,29.3637861 38.9341302,30.0864893 L38.9341302,30.0870891 C39.1639699,31.5157024 39.1147614,33.0972529 39.0457495,35.2863539 L39.0457495,35.2863539 L39.0457495,35.2863539 Z M40.865264,31.7693982 C40.8460607,31.7711975 40.8256572,31.772397 40.8064538,31.772397 C40.501001,31.772397 40.2399559,31.5408921 40.2099507,31.2314192 C40.0839289,29.9479462 39.6944616,28.567913 38.9833387,26.8880029 C37.631305,23.6937147 34.5149663,21.6299622 31.0445664,21.6299622 C29.8983683,21.6299622 28.7815752,21.8536703 27.7259927,22.2944893 C27.3245233,22.4618206 26.9626608,22.7119179 26.5797946,22.9758095 C26.431569,23.0783674 26.2827433,23.1809253 26.1315171,23.2792849 C25.853069,23.4598107 25.4822049,23.3806432 25.3015737,23.1029573 C25.1203423,22.8252713 25.199556,22.4540238 25.477404,22.2728982 C25.6190285,22.1811358 25.7582526,22.0851753 25.8980768,21.9892147 C26.3151489,21.7007331 26.7460233,21.4032553 27.2633128,21.1879437 C28.4665207,20.6853501 29.7387407,20.4304548 31.0445664,20.4304548 C34.9980498,20.4304548 38.5476634,22.782089 40.0887298,26.4207947 C40.8484611,28.2152578 41.2667334,29.707445 41.4041572,31.1138674 C41.4365628,31.443732 41.1953211,31.7370115 40.865264,31.7693982 L40.865264,31.7693982 L40.865264,31.7693982 Z" id="Shape" fill="#FFFFFF"></path>
                        </g>
                    </g>
                </g>
            </g>
        </g>
    </g>
</svg>