<?xml version="1.0" encoding="UTF-8" standalone="no"?>
<svg width="17px" height="16px" viewBox="0 0 17 16" version="1.1" xmlns="http://www.w3.org/2000/svg" xmlns:xlink="http://www.w3.org/1999/xlink">
    <!-- Generator: sketchtool 39.1 (31720) - http://www.bohemiancoding.com/sketch -->
    <title>F1A12173-9928-476F-B1FE-7D927EC468C1</title>
    <desc>Created with sketchtool.</desc>
    <defs></defs>
    <g id="Page-4" stroke="none" stroke-width="1" fill="none" fill-rule="evenodd">
        <g id="2.0" transform="translate(-1169.000000, -5608.000000)" fill="#FFFFFF">
            <g id="get-started" transform="translate(0.000000, 4698.000000)">
                <g id="Group-19" transform="translate(208.000000, 490.000000)">
                    <g id="footer" transform="translate(0.000000, 388.000000)">
                        <g id="foot" transform="translate(0.000000, 25.000000)">
                            <g id="social-bar" transform="translate(912.000000, 7.000000)">
                                <g id="facebook" transform="translate(49.185629, 0.000000)">
                                    <path d="M8.51943484,15.987453 L0.878230387,15.987453 C0.394307608,15.987453 0,15.5919609 0,15.1065852 L0,0.880868914 C0,0.395493633 0.394307608,0 0.878230387,0 L15.067328,0 C15.5512561,0 15.9455596,0.395493633 15.9455596,0.880868914 L15.9455596,15.1125777 C15.9455596,15.5979536 15.5512561,15.9934457 15.067328,15.9934457 L15.067328,15.987453 L11.0047654,15.987453 L11.0047654,9.79741124 L13.0778687,9.79741124 L13.3885343,7.38251386 L11.0047654,7.38251386 L11.0047654,5.84249288 C11.0047654,5.14139326 11.1959456,4.668003 12.1996371,4.668003 L13.4721782,4.668003 L13.4721782,2.51077154 C13.2511252,2.48080899 12.492385,2.41489738 11.6141534,2.41489738 C9.77404626,2.41489738 8.51943484,3.54144719 8.51943484,5.6027985 L8.51943484,7.38251386 L6.44035697,7.38251386 L6.44035697,9.79741124 L8.51943484,9.79741124 L8.51943484,15.987453 Z" id="Combined-Shape"></path>
                                </g>
                            </g>
                        </g>
                    </g>
                </g>
            </g>
        </g>
    </g>
</svg>