<?xml version="1.0" encoding="UTF-8" standalone="no"?>
<svg width="78px" height="61px" viewBox="0 0 78 61" version="1.1" xmlns="http://www.w3.org/2000/svg" xmlns:xlink="http://www.w3.org/1999/xlink">
    <!-- Generator: sketchtool 39.1 (31720) - http://www.bohemiancoding.com/sketch -->
    <title>E9ED3D3C-ADE9-4929-B5F4-A93D67B88BD9</title>
    <desc>Created with sketchtool.</desc>
    <defs>
        <polygon id="path-1" points="34.2256 36.7152352 34.2256 0.754615385 17.2828816 0.754615385 0.340163217 0.754615385 0.340163217 36.7152352 34.2256 36.7152352"></polygon>
        <polygon id="path-3" points="11.46852 0.754615385 0.25812 0.754615385 0.25812 8.62154285 11.46852 8.62154285 11.46852 0.754615385"></polygon>
    </defs>
    <g id="Page-4" stroke="none" stroke-width="1" fill="none" fill-rule="evenodd">
        <g id="2.0" transform="translate(-543.000000, -2513.000000)">
            <g id="framework" transform="translate(0.000000, 2046.000000)">
                <g id="tree" transform="translate(452.000000, 261.000000)">
                    <g id="filesharing" transform="translate(0.000000, 205.000000)">
                        <g transform="translate(91.000000, 0.000000)">
                            <path d="M3.26268,28.7131538 C1.45908,28.7131538 0.00108,30.167 0.00108,31.9654615 L0.00108,40.1016154 L16.31448,40.1016154 L16.31448,41.7277692 L39.15108,41.7277692 L39.15108,33.5916154 C39.15108,31.7985385 37.68768,30.3393077 35.88948,30.3393077 L19.11708,30.3393077 C18.55008,29.3700769 17.51868,28.7131538 16.31448,28.7131538 L3.26268,28.7131538 Z" id="Fill-1" fill="#473862"></path>
                            <path d="M24.68232,16.2908462 C23.16492,15.5746923 21.34512,16.2316154 20.63232,17.7393077 L15.44832,28.7185385 L12.85632,34.2054615 L8.96832,42.4331538 C8.25552,43.9462308 8.90352,45.7554615 10.42092,46.4716154 L29.68272,55.5231538 C31.20552,56.2339231 33.01992,55.577 33.73272,54.0693077 L37.62072,45.8362308 L40.21272,40.3493077 L42.80472,34.8623846 L38.44152,22.7523846 L24.68232,16.2908462 Z" id="Fill-3" fill="#95A5A6"></path>
                            <path d="M25.33086,14.9188462 C23.81346,14.2026923 21.99366,14.8596154 21.28086,16.3673077 L16.09686,27.3465385 L13.50486,32.8334615 L9.61686,41.0611538 C8.90406,42.5742308 9.55206,44.3834615 11.06946,45.0996154 L30.33126,54.1511538 C31.85406,54.8619231 33.66846,54.205 34.38126,52.6973077 L38.26926,44.4642308 L40.86126,38.9773077 L43.45326,33.4903846 L39.09006,21.3803846 L25.33086,14.9188462 Z" id="Fill-5" fill="#F3F4F4"></path>
                            <polygon id="Fill-7" fill="#30BBA4" points="25.48908 21.6991538 28.24308 22.9914615 19.16568 42.1983846 16.41168 40.9060769"></polygon>
                            <path d="M27.34128,42.6856923 L31.46688,44.6241538 L30.17088,47.3703077 L26.04528,45.4318462 L27.34128,42.6856923 Z M21.83868,40.1010769 L25.96428,42.0395385 L24.66828,44.7856923 L20.54268,42.8418462 L21.83868,40.1010769 Z M17.71308,38.1626154 L20.46168,39.4549231 L19.16568,42.1956923 L16.41708,40.9033846 L17.71308,38.1626154 Z M29.28528,38.5718462 L33.41088,40.5103077 L32.11488,43.2510769 L27.98928,41.3126154 L29.28528,38.5718462 Z M23.78268,35.9872308 L27.90828,37.9256923 L26.61228,40.6664615 L22.48668,38.728 L23.78268,35.9872308 Z M19.65708,34.0433846 L22.40568,35.3356923 L21.10968,38.0818462 L18.36108,36.7895385 L19.65708,34.0433846 Z M31.22928,34.4526154 L35.36028,36.3910769 L34.05888,39.1372308 L29.93328,37.1987692 L31.22928,34.4526154 Z M25.72668,31.868 L29.85228,33.8064615 L28.55628,36.5526154 L24.43068,34.6141538 L25.72668,31.868 Z M21.60108,29.9295385 L24.34968,31.2218462 L23.05368,33.968 L20.30508,32.6756923 L21.60108,29.9295385 Z M33.17328,30.3387692 L37.30428,32.2772308 L36.00828,35.0233846 L31.87728,33.0849231 L33.17328,30.3387692 Z M27.67068,27.7541538 L31.80168,29.6926154 L30.50028,32.4387692 L26.37468,30.4949231 L27.67068,27.7541538 Z M23.54508,25.8156923 L26.29368,27.108 L24.99768,29.8487692 L22.24908,28.5564615 L23.54508,25.8156923 Z M35.11728,26.2249231 L39.24828,28.1633846 L37.95228,30.9041538 L33.82128,28.9656923 L35.11728,26.2249231 Z M29.61468,23.6403077 L33.74568,25.5787692 L32.44968,28.3195385 L28.31868,26.3810769 L29.61468,23.6403077 Z M25.48908,21.6964615 L28.24308,22.9941538 L26.94708,25.7349231 L24.19308,24.4426154 L25.48908,21.6964615 Z M26.13708,20.3287692 C25.37568,19.968 24.47388,20.2964615 24.11208,21.0503077 L22.81608,23.7964615 L22.16808,25.1695385 L20.87208,27.9103077 L20.22408,29.2833846 L18.92808,32.0295385 L18.28008,33.3972308 L16.98408,36.1433846 L16.33608,37.5164615 L15.04008,40.2572308 C14.67828,41.0164615 15.00768,41.9210769 15.76368,42.2764615 L18.51768,43.5687692 L19.89468,44.2149231 L24.02028,46.1533846 L25.39728,46.7995385 L29.52288,48.738 C30.28428,49.0987692 31.19148,48.7703077 31.54788,48.0164615 L32.84388,45.2703077 L33.49188,43.8972308 L34.78788,41.1564615 L36.73188,37.0426154 L38.67588,32.9233846 L39.32388,31.5503077 L40.62528,28.8095385 C40.98168,28.0503077 40.65228,27.1456923 39.89628,26.7903077 L35.77068,24.8518462 L34.39368,24.2056923 L28.89108,21.6210769 L26.13708,20.3287692 Z" id="Fill-9" fill="#BCC3C6"></path>
                            <path d="M43.4538,33.4914615 L39.0906,21.3814615 L36.4932,26.8683846 C35.7804,28.3760769 36.4284,30.1906923 37.9512,30.9068462 L43.4538,33.4914615 Z" id="Fill-11" fill="#CFD2D2"></path>
                            <path d="M19.575,33.5932308 C19.575,35.3809231 18.117,36.8455385 16.3134,36.8455385 L8.154,36.8455385 L3.2616,36.8455385 C1.458,36.8455385 0,38.3101538 0,40.0978462 L0,53.1124615 L0,57.9909231 C0,59.784 1.458,61.2432308 3.2616,61.2432308 L35.8884,61.2432308 C37.692,61.2432308 39.15,59.784 39.15,57.9909231 L39.15,53.1124615 L39.15,36.8455385 C39.15,35.0578462 37.692,33.5932308 35.8884,33.5932308 L19.575,33.5932308 Z" id="Fill-13" fill="#5E4A79"></path>
                            <g id="Group-17" transform="translate(42.800000, 0.630000)">
                                <mask id="mask-2" fill="white">
                                    <use xlink:href="#path-1"></use>
                                </mask>
                                <g id="Clip-16"></g>
                                <path d="M2.48116,5.05153846 C0.89356,5.52538462 -0.00824,7.2 0.46696,8.77769231 L3.91756,20.2469231 L5.64016,25.9815385 L8.22136,34.5807692 C8.69656,36.1584615 10.37056,37.0630769 11.96356,36.5892308 L32.08936,30.5746154 C33.67696,30.1007692 34.57336,28.4261538 34.10356,26.8484615 L31.51696,18.2438462 L29.79436,12.5146154 L28.06636,6.78 L16.85596,0.754615385 L2.48116,5.05153846 Z" id="Fill-15" fill="#F3F4F4" mask="url(#mask-2)"></path>
                            </g>
                            <g id="Group-20" transform="translate(59.400000, 0.630000)">
                                <mask id="mask-4" fill="white">
                                    <use xlink:href="#path-3"></use>
                                </mask>
                                <g id="Clip-19"></g>
                                <path d="M11.46852,6.77784615 L0.25812,0.752461538 L1.98072,6.48707692 C2.45592,8.06476923 4.12992,8.96938462 5.71752,8.49553846 L11.46852,6.77784615 Z" id="Fill-18" fill="#CFD2D2" mask="url(#mask-4)"></path>
                            </g>
                            <polygon id="Fill-21" fill="#CFD2D2" points="59.22288 15.5757692 67.84668 12.9965385 68.27868 14.4288462 59.65488 17.0080769"></polygon>
                            <polygon id="Fill-23" fill="#CFD2D2" points="47.43576 12.849 51.70176 19.3859231 53.18676 18.9443846 53.15976 13.4843846 56.15136 18.0559231 57.63096 17.6143846 57.58776 9.81207692 56.15136 10.2428462 56.13516 15.2451538 53.36496 11.0774615 51.70176 11.5728462 51.69096 16.5751538 48.92076 12.4074615"></polygon>
                            <polygon id="Fill-25" fill="#CFD2D2" points="51.88968 22.4540769 69.14268 17.2956154 69.57468 18.7333077 52.32168 23.8863846"></polygon>
                            <polygon id="Fill-27" fill="#CFD2D2" points="53.18244 26.7547692 70.43544 21.5963077 70.86744 23.034 53.61444 28.1870769"></polygon>
                            <polygon id="Fill-29" fill="#CFD2D2" points="54.4752 31.0554615 71.7282 25.897 72.1602 27.3346923 54.9072 32.4877692"></polygon>
                            <path d="M3.5964,8.53215385 C2.7756,9.38292308 2.7756,10.756 3.5964,11.6121538 L3.5964,11.6229231 L4.8006,12.7806154 L5.5674,13.5667692 L9.2394,17.2229231 C10.3896,18.3967692 12.3066,18.3967692 13.5108,17.2229231 C14.661,16.0490769 14.661,14.1483077 13.5108,12.9744615 L9.018,8.53215385 L8.2512,9.30215385 L11.7612,12.7806154 L12.528,13.5506154 L12.636,13.6852308 C12.69,13.7067692 12.69,13.7229231 12.744,13.7444615 C13.4568,14.5306154 13.4568,15.7206154 12.744,16.4529231 C11.9772,17.1798462 10.773,17.1744615 10.0062,16.4529231 L9.9522,16.3883077 L9.7848,16.2590769 L9.018,15.4836923 L6.3342,12.7913846 L5.7348,12.1775385 L5.5674,12.0106154 L4.3632,10.8475385 L4.3632,10.8367692 C3.9798,10.4113846 3.9798,9.72753846 4.3632,9.30215385 C4.8006,8.88215385 5.5134,8.87676923 5.9508,9.29138462 L5.9508,9.30215385 L7.2684,10.6321538 L8.2512,11.6229231 L8.6346,12.0106154 L9.4554,12.8183077 L10.3896,13.7444615 C10.4976,13.8521538 10.4976,14.0244615 10.3896,14.1321538 C10.2816,14.2398462 10.1142,14.2398462 10.0062,14.1321538 L9.072,13.2006154 L8.2512,12.3929231 L7.8678,12.0106154 L6.7176,10.8475385 L5.9508,11.6229231 L7.101,12.7806154 L7.4844,13.1683077 L9.2394,14.9075385 L9.2394,14.9183077 C9.7848,15.446 10.611,15.4406154 11.1564,14.9075385 C11.7018,14.3744615 11.7018,13.5129231 11.1564,12.9852308 L11.1564,12.9744615 L10.611,12.3929231 L9.018,10.8475385 L6.7176,8.53215385 L6.7176,8.52138462 C5.8428,7.676 4.4712,7.68138462 3.5964,8.53215385" id="Fill-31" fill="#BCC3C6"></path>
                            <path d="M56.84958,46.6643846 C55.79658,46.2013077 54.54378,46.6643846 54.04158,47.6982308 L54.03078,47.6982308 L53.37198,49.1843846 L52.91298,50.1428462 L50.80698,54.6982308 C50.12118,56.1359231 50.76378,57.8751538 52.23798,58.5805385 C53.69058,59.2320769 55.42938,58.5913077 56.11518,57.1536154 L58.66938,51.5859231 L57.70278,51.1497692 L55.70478,55.5005385 L55.25658,56.4536154 L55.17018,56.599 C55.17018,56.6528462 55.15398,56.6582308 55.15398,56.7174615 C54.67878,57.6274615 53.58798,58.0259231 52.68618,57.6220769 C51.76278,57.1697692 51.36318,56.0766923 51.76818,55.1343846 L51.80598,55.0643846 L51.87078,54.8705385 L52.31898,53.9174615 L53.87418,50.579 L54.23598,49.8251538 L54.33858,49.6205385 L54.99198,48.1397692 L55.00278,48.1343846 C55.26198,47.639 55.88838,47.4128462 56.40138,47.6174615 C56.93598,47.8759231 57.17898,48.5220769 56.94678,49.0605385 L56.93598,49.0605385 L56.16378,50.7028462 L55.58598,51.9251538 L55.36458,52.4043846 L54.90018,53.4220769 L54.36558,54.5797692 C54.30618,54.7143846 54.14418,54.7736154 54.00918,54.709 C53.87958,54.6443846 53.82018,54.4936154 53.88498,54.359 L54.41958,53.2013077 L54.88398,52.1836154 L55.10538,51.7097692 L55.78038,50.2774615 L54.81918,49.8359231 L54.14418,51.2736154 L53.92278,51.7474615 L52.91838,53.9228462 L52.90758,53.9282308 C52.61058,54.6013077 52.89138,55.3443846 53.56098,55.6620769 C54.23598,55.9797692 55.01898,55.6943846 55.31598,55.0213077 L55.32678,55.0159231 L55.67238,54.3266923 L56.55258,52.3666923 L57.89718,49.5020769 L57.90798,49.4966923 C58.38318,48.4197692 57.91878,47.1759231 56.84958,46.6643846" id="Fill-33" fill="#BCC3C6"></path>
                        </g>
                    </g>
                </g>
            </g>
        </g>
    </g>
</svg>