<?xml version="1.0" encoding="UTF-8" standalone="no"?>
<svg width="28px" height="31px" viewBox="0 0 28 31" version="1.1" xmlns="http://www.w3.org/2000/svg" xmlns:xlink="http://www.w3.org/1999/xlink">
    <!-- Generator: sketchtool 39.1 (31720) - http://www.bohemiancoding.com/sketch -->
    <title>4301D2C6-4FA8-499E-BBE7-08E5C9FD6AAD</title>
    <desc>Created with sketchtool.</desc>
    <defs>
        <path d="M25.9564898,27.1221622 C26.1774898,28.6132432 25.1496939,29.8343243 23.6666327,29.8343243 L2.45222449,29.8343243 C0.969693878,29.8343243 -0.0591632653,28.612973 0.162632653,27.1221622 L1.67434694,16.6264865 L24.4437143,16.6264865 L25.9564898,27.1221622 L25.9564898,27.1221622 Z" id="path-1"></path>
        <filter x="-50%" y="-50%" width="200%" height="200%" filterUnits="objectBoundingBox" id="filter-2">
            <feOffset dx="0" dy="0" in="SourceAlpha" result="shadowOffsetOuter1"></feOffset>
            <feGaussianBlur stdDeviation="0.5" in="shadowOffsetOuter1" result="shadowBlurOuter1"></feGaussianBlur>
            <feColorMatrix values="0 0 0 0 0   0 0 0 0 0   0 0 0 0 0  0 0 0 0.42040308 0" type="matrix" in="shadowBlurOuter1"></feColorMatrix>
        </filter>
        <linearGradient x1="50.0005854%" y1="-0.000818514805%" x2="50.0005854%" y2="99.9993861%" id="linearGradient-3">
            <stop stop-color="#E6E6E6" offset="0%"></stop>
            <stop stop-color="#FFFFFF" offset="100%"></stop>
        </linearGradient>
        <path d="M1.67461224,16.6264865 L0.162897959,6.13081081 C-0.0588979592,4.64189189 0.969959184,3.42135135 2.4524898,3.42135135 L23.666898,3.42135135 C25.1499592,3.42135135 26.1777551,4.64216216 25.9567551,6.13081081 L24.4442449,16.6264865 L1.67461224,16.6264865 L1.67461224,16.6264865 Z" id="path-4"></path>
        <filter x="-50%" y="-50%" width="200%" height="200%" filterUnits="objectBoundingBox" id="filter-5">
            <feOffset dx="0" dy="0" in="SourceAlpha" result="shadowOffsetOuter1"></feOffset>
            <feGaussianBlur stdDeviation="0.5" in="shadowOffsetOuter1" result="shadowBlurOuter1"></feGaussianBlur>
            <feColorMatrix values="0 0 0 0 0   0 0 0 0 0   0 0 0 0 0  0 0 0 0.374037591 0" type="matrix" in="shadowBlurOuter1"></feColorMatrix>
        </filter>
    </defs>
    <g id="Page-4" stroke="none" stroke-width="1" fill="none" fill-rule="evenodd">
        <g id="2.0" transform="translate(-207.000000, -5601.000000)">
            <g id="get-started" transform="translate(0.000000, 4698.000000)">
                <g id="Group-19" transform="translate(208.000000, 490.000000)">
                    <g id="footer" transform="translate(0.000000, 388.000000)">
                        <g id="foot" transform="translate(0.000000, 25.000000)">
                            <g id="Group-8">
                                <g id="Icon-Copy">
                                    <path d="M23.4313061,21.0945946 C23.4313061,22.6651351 22.1695102,23.9521622 20.6267551,23.9521622 L5.49369388,23.9521622 C3.952,23.9521622 2.68728571,22.6648649 2.68728571,21.0945946 L2.68728571,2.91378378 C2.68728571,1.34351351 3.95226531,0.0559459459 5.49369388,0.0559459459 L20.6267551,0.0559459459 C22.1695102,0.0559459459 23.4313061,1.34351351 23.4313061,2.91378378 L23.4313061,21.0945946 L23.4313061,21.0945946 Z" id="Shape" fill="#5BC2A8"></path>
                                    <g id="Shape">
                                        <use fill="black" fill-opacity="1" filter="url(#filter-2)" xlink:href="#path-1"></use>
                                        <use fill="#FFFFFF" fill-rule="evenodd" xlink:href="#path-1"></use>
                                    </g>
                                    <path d="M25.9564898,27.1221622 C26.1774898,28.6132432 25.1496939,29.8343243 23.6666327,29.8343243 L14.7985102,29.8343243 L1.67434694,16.6264865 L24.4437143,16.6264865 L25.9564898,27.1221622 L25.9564898,27.1221622 Z" id="Shape" fill="url(#linearGradient-3)"></path>
                                    <g id="Shape">
                                        <use fill="black" fill-opacity="1" filter="url(#filter-5)" xlink:href="#path-4"></use>
                                        <use fill="#BEC3C7" fill-rule="evenodd" xlink:href="#path-4"></use>
                                    </g>
                                    <path d="M4.36136735,17.0051351 C4.36136735,22.1091892 8.44920408,25.9613514 13.3974286,25.9613514 C17.3016735,25.9613514 20.0367143,23.957027 21.7582857,20.5105405 L19.3912245,20.5105405 C18.2222857,22.797027 15.9494082,23.9883784 13.4597755,23.9883784 C9.55606122,23.9883784 6.51273469,20.9186486 6.51273469,16.9416216 C6.51273469,16.8356757 6.51618367,16.7310811 6.52042857,16.6264865 L4.37091837,16.6264865 C4.36587755,16.7518919 4.36136735,16.8778378 4.36136735,17.0051351 L4.36136735,17.0051351 Z" id="Shape" fill="#5D4A78"></path>
                                    <path d="M13.4595102,9.96054054 C15.9793878,9.96054054 18.2220204,11.3372973 19.3909592,13.5913514 L21.7580204,13.5913514 C20.374449,10.0856757 17.0554694,7.98756757 13.3971633,7.98756757 C8.60334694,7.98756757 4.57122449,11.7672973 4.37091837,16.6262162 L6.52042857,16.6262162 C6.68093878,12.8367568 9.72134694,9.96054054 13.4595102,9.96054054 L13.4595102,9.96054054 Z" id="Shape" fill="#4A3966"></path>
                                </g>
                            </g>
                        </g>
                    </g>
                </g>
            </g>
        </g>
    </g>
</svg>