<?xml version="1.0" encoding="UTF-8" standalone="no"?>
<svg width="50px" height="50px" viewBox="0 0 50 50" version="1.1" xmlns="http://www.w3.org/2000/svg" xmlns:xlink="http://www.w3.org/1999/xlink">
    <!-- Generator: sketchtool 39.1 (31720) - http://www.bohemiancoding.com/sketch -->
    <title>06E33454-2724-44E3-A995-AB4D8D344DF8</title>
    <desc>Created with sketchtool.</desc>
    <defs></defs>
    <g id="Page-4" stroke="none" stroke-width="1" fill="none" fill-rule="evenodd">
        <g id="2.0" transform="translate(-1045.000000, -4425.000000)">
            <g id="pricing" transform="translate(0.000000, 3105.000000)">
                <g id="Group-7" transform="translate(272.000000, 1320.000000)">
                    <g id="incorporation-card" transform="translate(699.000000, 0.000000)">
                        <g id="incorporation-icon" transform="translate(74.000000, 0.000000)">
                            <circle id="Oval" fill="#5D4A78" cx="25" cy="25" r="25"></circle>
                            <g id="incorporation" transform="translate(13.000000, 14.000000)">
                                <path d="M22.0743976,8.02306579 C22.9075301,8.02306579 23.0266566,7.63615132 22.339006,7.16344079 L13.8204819,0.357861842 C13.1329819,-0.114848684 12.0055723,-0.118328947 11.3152108,0.350296053 L2.66129518,7.17085526 C1.97093373,7.63993421 2.0876506,8.02306579 2.92078313,8.02306579 L22.0743976,8.02306579 L22.0743976,8.02306579 Z M2.09713855,20.5797039 C2.09796637,20.9158092 2.36894313,21.1880696 2.70346386,21.1889013 L22.1835843,21.1889013 C22.5178454,21.1878203 22.7884806,20.9157004 22.7893072,20.5798553 L22.7893072,20.2241118 C22.7884802,19.8882914 22.5178211,19.6162151 22.1835843,19.6152171 L21.5783133,19.6152171 C21.2451807,19.6152171 20.9777108,19.5920658 20.9838855,19.5640724 C20.9620278,19.4243429 20.9196483,19.2886472 20.8581325,19.1614211 C20.7819277,18.9981513 20.1189759,18.8642368 19.7858434,18.8642368 L19.0347892,18.8642368 C18.728426,18.8596459 18.4233229,18.9046063 18.1311747,18.9973947 C17.9668675,19.0704803 17.8266566,19.4826645 17.8299699,19.5118684 C17.8332831,19.5410724 17.576506,19.6153684 17.2426205,19.6153684 L14.8531627,19.6153684 C14.5200301,19.6153684 14.2525602,19.5922171 14.2588855,19.5642237 C14.2370278,19.4244943 14.1946483,19.2887985 14.1331325,19.1615724 C14.0570783,18.9983026 13.3939759,18.8643882 13.0606928,18.8643882 L12.3099398,18.8643882 C12.0032757,18.8597233 11.6978635,18.9046844 11.4054217,18.9975461 C11.2414157,19.0706316 11.1010542,19.4828158 11.1042169,19.5120197 C11.1073795,19.5412237 10.8510542,19.6155197 10.5177711,19.6155197 L8.12846386,19.6155197 C7.79548193,19.6155197 7.52786145,19.5923684 7.53418675,19.564375 C7.51240936,19.4246459 7.47007925,19.2889457 7.40858434,19.1617237 C7.33237952,18.9984539 6.66927711,18.8645395 6.33614458,18.8645395 L5.58524096,18.8645395 C5.27857693,18.8598747 4.9731647,18.9048357 4.68072289,18.9976974 C4.51641566,19.0707829 4.37635542,19.4829671 4.37951807,19.5121711 C4.38268072,19.541375 4.12635542,19.6156711 3.79322289,19.6156711 L2.70391566,19.6156711 C2.36968856,19.6167512 2.09903418,19.8887552 2.09804217,20.2245658 L2.09804217,20.5803092 L2.09713855,20.5797039 Z M18.1256024,10.7732303 C18.419032,10.8684596 18.7260133,10.9147198 19.0343373,10.9101711 L19.7853916,10.9101711 C20.0937156,10.9147198 20.4006969,10.8684596 20.6941265,10.7732303 C20.8606928,10.6975724 20.9968373,10.2179013 20.9968373,10.1157632 C20.9968373,10.013625 21.2695783,9.93009868 21.6028614,9.93009868 L22.1831325,9.93009868 C22.5173693,9.92910074 22.7880283,9.65702437 22.7888554,9.32120395 L22.7888554,8.96530921 C22.7880287,8.62946406 22.5173936,8.35734416 22.1831325,8.35626316 L2.70346386,8.35626316 C2.36917818,8.35734376 2.09849972,8.62943958 2.09759036,8.96530921 L2.09759036,9.32120395 C2.09858238,9.65701449 2.36923675,9.92901851 2.70346386,9.93009868 L3.76762048,9.93009868 C4.10075301,9.93009868 4.37334337,10.013625 4.37334337,10.1157632 C4.39170763,10.2855093 4.43780811,10.4510507 4.50978916,10.6057237 C4.58509036,10.7732303 5.25195783,10.9101711 5.58524096,10.9101711 L6.33614458,10.9101711 C6.64446773,10.9147061 6.95144684,10.8684463 7.24487952,10.7732303 C7.41144578,10.6975724 7.54774096,10.2179013 7.54774096,10.1157632 C7.54774096,10.013625 7.82048193,9.93009868 8.15361446,9.93009868 L10.4926205,9.93009868 C10.825753,9.93009868 11.098494,10.013625 11.098494,10.1157632 C11.1166856,10.2854351 11.1624751,10.450956 11.2340361,10.6057237 C11.3093373,10.7732303 11.9762048,10.9101711 12.309488,10.9101711 L13.060994,10.9101711 C13.3693206,10.9147581 13.6763081,10.8684969 13.9697289,10.7732303 C14.1361446,10.6975724 14.272741,10.2179013 14.272741,10.1157632 C14.272741,10.013625 14.5454819,9.93009868 14.8786145,9.93009868 L17.2176205,9.93009868 C17.5509036,9.93009868 17.823494,10.013625 17.823494,10.1157632 C17.823494,10.2179013 17.959488,10.6977237 18.1260542,10.7732303 L18.1256024,10.7732303 Z M24.8856928,22.0703158 C24.8847837,21.7019719 24.5879919,21.4035038 24.2213855,21.4022566 L0.665361446,21.4022566 C0.298730523,21.4035034 0.00189532428,21.7019474 0.000903614458,22.0703158 L0.000903614458,22.3086382 C0.00189575231,22.6769818 0.298754878,22.9753823 0.665361446,22.9765461 L24.2218373,22.9765461 C24.5884193,22.9753819 24.8852351,22.6769573 24.8861446,22.3086382 L24.8861446,22.0704671 L24.8856928,22.0703158 Z" id="Shape" fill="#2DBEA7"></path>
                                <path d="M13.6665663,18.7041447 C14.0009009,18.7029816 14.2715988,18.4308662 14.2725904,18.0949474 L14.2725904,11.7610197 C14.2715157,11.4251847 14.000818,11.1532047 13.6665663,11.152125 L11.7042169,11.152125 C11.3699801,11.1531229 11.0993211,11.4251993 11.098494,11.7610197 L11.098494,18.0949474 C11.0993202,18.4308173 11.3699314,18.7029807 11.7042169,18.7041447 L13.6665663,18.7041447 L13.6665663,18.7041447 Z M20.3915663,18.7041447 C20.7258175,18.7028981 20.9963807,18.4307829 20.9972892,18.0949474 L20.9972892,11.7610197 C20.9963798,11.4252337 20.7257688,11.1532056 20.3915663,11.152125 L18.4290663,11.152125 C18.0948049,11.1531226 17.8241025,11.4251748 17.8231928,11.7610197 L17.8231928,18.0949474 C17.8241017,18.4308417 18.0947562,18.7029811 18.4290663,18.7041447 L20.3915663,18.7041447 L20.3915663,18.7041447 Z M6.94171687,18.7041447 C7.27608572,18.7030641 7.5468316,18.4309006 7.54774096,18.0949474 L7.54774096,11.7610197 C7.54683079,11.425116 7.276037,11.1530395 6.94171687,11.152125 L4.97921687,11.152125 C4.64498976,11.1532052 4.37433539,11.4252092 4.37334337,11.7610197 L4.37334337,18.0949474 C4.37433447,18.4308074 4.64494105,18.7028986 4.97921687,18.7041447 L6.94171687,18.7041447 L6.94171687,18.7041447 Z" id="Shape" fill="#FFFFFF"></path>
                            </g>
                        </g>
                    </g>
                </g>
            </g>
        </g>
    </g>
</svg>