<?xml version="1.0" encoding="UTF-8" standalone="no"?>
<svg width="61px" height="60px" viewBox="0 0 61 60" version="1.1" xmlns="http://www.w3.org/2000/svg" xmlns:xlink="http://www.w3.org/1999/xlink">
    <!-- Generator: sketchtool 39.1 (31720) - http://www.bohemiancoding.com/sketch -->
    <title>AD4C3D19-0FA9-4084-A6D3-DAF09B1B3828</title>
    <desc>Created with sketchtool.</desc>
    <defs></defs>
    <g id="Page-4" stroke="none" stroke-width="1" fill="none" fill-rule="evenodd">
        <g id="2.0" transform="translate(-301.000000, -887.000000)">
            <g id="how-it-works" transform="translate(0.000000, 674.000000)">
                <g id="Group" transform="translate(208.000000, 213.000000)">
                    <g id="sign-up">
                        <g id="Group-Copy" transform="translate(93.616183, 0.000000)">
                            <path d="M30,60 C46.5685425,60 60,46.5685425 60,30 C60,13.4314575 46.5685425,0 30,0 C13.4314575,0 0,13.4314575 0,30 C0,46.5685425 13.4314575,60 30,60 Z" id="Oval" fill="#5D4A78"></path>
                            <path d="M30.044564,31.7118311 L29.4425977,30.3306082 L42.4991497,43.0408358 L42.1381431,39.9286602 L33.0249612,31.0567545 L31.1373956,29.2201804 L32.1358632,25.024544 L26.1387085,19.1864407 L18.3345005,20.9454843 L16.5274471,28.5429121 L22.5246018,34.3804536 L26.3926541,33.5085163 L28.4490358,35.5111068 L31.7041558,36.0889338 L34.0543063,38.375241 L34.1022097,40.0042243 L35.7744988,40.0516977 L35.7759416,40.0516977 L35.8241336,41.6801193 L37.4975769,41.7275927 L38.894566,43.0874665 L41.8149396,43.1694915 L30.044564,31.7118311 L30.044564,31.7118311 Z M23.3106787,24.1160887 C23.3106787,25.0402748 22.5410506,25.7894555 21.5916405,25.7894555 C20.6422305,25.7894555 19.8726024,25.0402748 19.8726024,24.1160887 C19.8726024,23.1919026 20.6422305,22.4427219 21.5916405,22.4427219 C22.5410506,22.4427219 23.3106787,23.1919026 23.3106787,24.1160887 L23.3106787,24.1160887 Z" id="Shape" fill="#FFFFFF"></path>
                        </g>
                    </g>
                </g>
            </g>
        </g>
    </g>
</svg>