<?xml version="1.0" encoding="UTF-8" standalone="no"?>
<svg width="17px" height="16px" viewBox="0 0 17 16" version="1.1" xmlns="http://www.w3.org/2000/svg" xmlns:xlink="http://www.w3.org/1999/xlink">
    <!-- Generator: sketchtool 39.1 (31720) - http://www.bohemiancoding.com/sketch -->
    <title>3B79A182-F6B0-4489-A8EB-363A64BEFDE5</title>
    <desc>Created with sketchtool.</desc>
    <defs></defs>
    <g id="Page-4" stroke="none" stroke-width="1" fill="none" fill-rule="evenodd">
        <g id="2.0" transform="translate(-1214.000000, -5608.000000)" fill="#FFFFFF">
            <g id="get-started" transform="translate(0.000000, 4698.000000)">
                <g id="Group-19" transform="translate(208.000000, 490.000000)">
                    <g id="footer" transform="translate(0.000000, 388.000000)">
                        <g id="foot" transform="translate(0.000000, 25.000000)">
                            <g id="social-bar" transform="translate(912.000000, 7.000000)">
                                <g id="linkedin" transform="translate(94.383234, 0.000000)">
                                    <path d="M15,0 L1.21257485,0 C0.538922156,0 0,0.533333333 0,1.15555556 L0,14.8444436 C0,15.4666662 0.538922156,15.9999983 1.21257485,15.9999983 L15,15.9999983 C15.6736527,15.9999983 16.2125749,15.4666644 16.2125749,14.8444436 L16.2125749,1.15555556 C16.2125749,0.533333333 15.6736527,0 15,0 Z M6.33233533,6 L8.62275449,6 L8.62275449,7.02222222 L8.66766467,7.02222222 C8.98203593,6.4 9.79041916,5.77777778 10.9580838,5.77777778 C13.3832335,5.77777778 13.8323353,7.37777778 13.8323353,9.42222222 L13.8323353,13.6 L11.4520958,13.6 L11.4520958,9.86666667 C11.4520958,8.97777778 11.4520958,7.82222222 10.1946108,7.82222222 C8.93712575,7.82222222 8.75748503,8.8 8.75748503,9.77777778 L8.75748503,13.5555556 L6.37724551,13.5555556 L6.37724551,6 L6.33233533,6 Z M2.4251497,6 L4.80538922,6 L4.80538922,13.6444449 L2.4251497,13.6444449 L2.4251497,6 Z M3.63772455,2.22222222 C4.4011976,2.22222222 5.02994012,2.84444444 5.02994012,3.6 C5.02994012,4.35555556 4.4011976,4.97777778 3.63772455,4.97777778 C2.8742515,4.97777778 2.24550898,4.35555556 2.24550898,3.6 C2.24550898,2.84444444 2.8742515,2.22222222 3.63772455,2.22222222 Z" id="Combined-Shape"></path>
                                </g>
                            </g>
                        </g>
                    </g>
                </g>
            </g>
        </g>
    </g>
</svg>