<?xml version="1.0" encoding="UTF-8" standalone="no"?>
<svg width="60px" height="60px" viewBox="0 0 60 60" version="1.1" xmlns="http://www.w3.org/2000/svg" xmlns:xlink="http://www.w3.org/1999/xlink">
    <!-- Generator: sketchtool 39.1 (31720) - http://www.bohemiancoding.com/sketch -->
    <title>D76D5FDF-3B15-4CBA-9B82-7D8E75B40CD0</title>
    <desc>Created with sketchtool.</desc>
    <defs></defs>
    <g id="Page-4" stroke="none" stroke-width="1" fill="none" fill-rule="evenodd">
        <g id="2.0" transform="translate(-690.000000, -888.000000)">
            <g id="how-it-works" transform="translate(0.000000, 674.000000)">
                <g id="Group" transform="translate(208.000000, 213.000000)">
                    <g id="get-matched" transform="translate(388.000000, 1.000000)">
                        <g id="Group-Copy" transform="translate(94.000000, 0.000000)">
                            <path d="M30,60 C46.5685425,60 60,46.5685425 60,30 C60,13.4314575 46.5685425,0 30,0 C13.4314575,0 0,13.4314575 0,30 C0,46.5685425 13.4314575,60 30,60 Z" id="Oval" fill="#5D4A78"></path>
                            <g id="Group-5" transform="translate(13.202282, 17.987288)" fill="#FFFFFF">
                                <path d="M10.9099392,3.44861044 C10.9099392,5.28160075 9.45032692,6.76969196 7.64308119,6.76969196 C5.84629059,6.76969196 4.38145071,5.28198144 4.38145071,3.44861044 C4.38145071,1.60458031 5.84629059,0.118011838 7.64308119,0.118011838 C9.45032692,0.119153888 10.9099392,1.60419962 10.9099392,3.44861044 L10.9099392,3.44861044 Z" id="Shape"></path>
                                <path d="M29.6067178,3.44861044 C29.6067178,5.28160075 28.1478523,6.76969196 26.3398598,6.76969196 C24.5430692,6.76969196 23.0786027,5.28198144 23.0786027,3.44861044 C23.0786027,1.60458031 24.5434426,0.118011838 26.3398598,0.118011838 C28.1478523,0.119153888 29.6067178,1.60419962 29.6067178,3.44861044 L29.6067178,3.44861044 Z" id="Shape"></path>
                                <g id="Group" transform="translate(0.000000, 7.232984)">
                                    <path d="M9.66353711,6.53176486 C9.41224034,7.42789346 8.60458073,8.08419155 7.64494818,8.08419155 C6.48480097,8.08419155 5.54383831,7.12486952 5.54383831,5.94208636 C5.54383831,4.7593032 6.48480097,3.79998117 7.64494818,3.79998117 C8.62847819,3.79998117 9.45219391,4.49016008 9.68071342,5.42093086 L11.4995345,5.42093086 L11.4995345,4.8186898 L12.3195162,4.8186898 L12.3195162,5.42093086 L14.892601,5.42093086 L14.892601,4.54345574 C14.892601,2.14857681 13.4438172,0.224603175 11.1362183,0.224603175 L3.8206071,0.231455475 C1.28934288,0.231455475 0.0164295067,2.38916868 0.0164295067,4.59789346 L0.0164295067,14.7503376 C0.00933494698,16.7523514 2.5700976,16.7523514 2.5700976,14.7503376 L2.5700976,4.80993409 L3.37140945,4.80993409 L3.37551683,15.3179365 L11.4999079,15.3179365 L11.4999079,6.53176486 L9.66353711,6.53176486 L9.66353711,6.53176486 Z" id="Shape"></path>
                                    <path d="M12.3195162,6.53176486 L12.3195162,14.7491956 C12.3195162,16.737124 14.892601,16.737124 14.892601,14.7491956 L14.892601,6.53176486 L12.3195162,6.53176486 L12.3195162,6.53176486 Z" id="Shape"></path>
                                </g>
                                <g id="Group" transform="translate(18.669894, 7.232984)">
                                    <path d="M0.043314154,6.53176486 L0.043314154,14.7503376 C0.0365929922,16.7523514 2.59660885,16.7523514 2.59660885,14.7503376 L2.59660885,6.53176486 L0.043314154,6.53176486 L0.043314154,6.53176486 Z" id="Shape"></path>
                                    <path d="M11.163103,0.224603175 L3.84711835,0.231455475 C1.31660092,0.231455475 0.0429407561,2.38916868 0.0429407561,4.59789346 L0.0429407561,5.42093086 L2.59623545,5.42093086 L2.59623545,4.80993409 L3.3979207,4.80993409 L3.3979207,5.42093086 L5.63606759,5.42093086 C5.86458709,4.49016008 6.68830281,3.79998117 7.67183283,3.79998117 C8.83198004,3.79998117 9.77294269,4.7593032 9.77294269,5.94208636 C9.77294269,7.12486952 8.83198004,8.08419155 7.67183283,8.08419155 C6.71257367,8.08419155 5.90491406,7.42751278 5.65324389,6.53176486 L3.3986675,6.53176486 L3.40128128,15.3175558 L11.5271659,15.3175558 L11.5271659,4.8186898 L12.3464009,4.8186898 L12.3464009,14.7491956 C12.3464009,16.737124 14.9191123,16.737124 14.9191123,14.7491956 L14.9191123,4.54383643 C14.9206059,2.14895749 13.4718221,0.224603175 11.163103,0.224603175 L11.163103,0.224603175 Z" id="Shape"></path>
                                </g>
                            </g>
                        </g>
                    </g>
                </g>
            </g>
        </g>
    </g>
</svg>