<?xml version="1.0" encoding="UTF-8" standalone="no"?>
<svg width="67px" height="57px" viewBox="0 0 67 57" version="1.1" xmlns="http://www.w3.org/2000/svg" xmlns:xlink="http://www.w3.org/1999/xlink">
    <!-- Generator: sketchtool 39.1 (31720) - http://www.bohemiancoding.com/sketch -->
    <title>23F78E40-90F0-4095-A75D-63E76EEB4BF1</title>
    <desc>Created with sketchtool.</desc>
    <defs>
        <polygon id="path-1" points="0 57.5742154 66.7146667 57.5742154 66.7146667 0.999061538 0 0.999061538"></polygon>
    </defs>
    <g id="Page-4" stroke="none" stroke-width="1" fill="none" fill-rule="evenodd">
        <g id="2.0" transform="translate(-542.000000, -2716.000000)">
            <g id="framework" transform="translate(0.000000, 2046.000000)">
                <g id="tree" transform="translate(452.000000, 261.000000)">
                    <g id="meetings" transform="translate(0.000000, 408.000000)">
                        <g transform="translate(90.000000, 0.000000)">
                            <path d="M5.222,6.25069231 C2.338,6.25069231 0,8.60153846 0,11.5013846 L0,48.2562308 C0,51.1607692 2.338,53.5069231 5.222,53.5069231 L20.888,53.5069231 L26.11,53.5069231 L41.776,53.5069231 C44.6646667,53.5069231 46.998,51.1607692 46.998,48.2562308 L46.998,11.5013846 C46.998,8.60153846 44.6646667,6.25069231 41.776,6.25069231 L26.11,6.25069231 L20.888,6.25069231 L5.222,6.25069231 L5.222,6.25069231 Z" id="Fill-1" fill="#F3F0EF"></path>
                            <path d="M5.222,6.25069231 C2.338,6.25069231 0,8.60153846 0,11.5013846 L0,19.3797692 L0,22.0027692 L46.998,22.0027692 L46.998,19.3797692 L46.998,11.5013846 C46.998,8.60153846 44.6646667,6.25069231 41.776,6.25069231 L26.11,6.25069231 L20.888,6.25069231 L5.222,6.25069231 Z" id="Fill-3" fill="#31BBA3"></path>
                            <path d="M7.83346667,1 C6.39146667,1 5.22013333,2.17776923 5.22013333,3.62769231 L5.22013333,11.5013846 C5.22013333,12.9513077 6.39146667,14.1290769 7.83346667,14.1290769 C9.27546667,14.1290769 10.4468,12.9513077 10.4468,11.5013846 L10.4468,3.62769231 C10.4468,2.17776923 9.27546667,1 7.83346667,1" id="Fill-5" fill="#D0D2D2"></path>
                            <path d="M39.1668667,1 C37.7248667,1 36.5535333,2.05107692 36.5535333,3.62769231 L36.5535333,11.5013846 C36.5535333,12.8152308 37.7248667,14.1290769 39.1668667,14.1290769 C40.6088667,14.1290769 41.7802,12.8152308 41.7802,11.5013846 L41.7802,3.62769231 C41.7802,2.05107692 40.6088667,1 39.1668667,1" id="Fill-7" fill="#D0D2D2"></path>
                            <mask id="mask-2" fill="white">
                                <use xlink:href="#path-1"></use>
                            </mask>
                            <g id="Clip-10"></g>
                            <path d="M36.554,32.5032154 L41.776,32.5032154 L41.776,27.2525231 L36.554,27.2525231 L36.554,32.5032154 Z M28.7233333,32.5032154 L33.9453333,32.5032154 L33.9453333,27.2525231 L28.7233333,27.2525231 L28.7233333,32.5032154 Z M20.888,32.5032154 L26.11,32.5032154 L26.11,27.2525231 L20.888,27.2525231 L20.888,32.5032154 Z M13.0573333,32.5032154 L18.2793333,32.5032154 L18.2793333,27.2525231 L13.0573333,27.2525231 L13.0573333,32.5032154 Z M5.222,32.5032154 L10.444,32.5032154 L10.444,27.2525231 L5.222,27.2525231 L5.222,32.5032154 Z" id="Fill-9" fill="#D0D2D2" mask="url(#mask-2)"></path>
                            <path d="M36.554,40.3816 L41.776,40.3816 L41.776,35.1309077 L36.554,35.1309077 L36.554,40.3816 Z M28.7233333,40.3816 L33.9453333,40.3816 L33.9453333,35.1309077 L28.7233333,35.1309077 L28.7233333,40.3816 Z M20.888,40.3816 L26.11,40.3816 L26.11,35.1309077 L20.888,35.1309077 L20.888,40.3816 Z M13.0573333,40.3816 L18.2793333,40.3816 L18.2793333,35.1309077 L13.0573333,35.1309077 L13.0573333,40.3816 Z M5.222,40.3816 L10.444,40.3816 L10.444,35.1309077 L5.222,35.1309077 L5.222,40.3816 Z" id="Fill-11" fill="#D0D2D2" mask="url(#mask-2)"></path>
                            <path d="M36.554,48.2599846 L41.776,48.2599846 L41.776,43.0092923 L36.554,43.0092923 L36.554,48.2599846 Z M28.7233333,48.2599846 L33.9453333,48.2599846 L33.9453333,43.0092923 L28.7233333,43.0092923 L28.7233333,48.2599846 Z M20.888,48.2599846 L26.11,48.2599846 L26.11,43.0092923 L20.888,43.0092923 L20.888,48.2599846 Z M13.0573333,48.2599846 L18.2793333,48.2599846 L18.2793333,43.0092923 L13.0573333,43.0092923 L13.0573333,48.2599846 Z M5.222,48.2599846 L10.444,48.2599846 L10.444,43.0092923 L5.222,43.0092923 L5.222,48.2599846 Z" id="Fill-12" fill="#D0D2D2" mask="url(#mask-2)"></path>
                            <path d="M65.2787333,43.2612692 C65.2787333,50.4358077 59.4920667,56.2542692 52.3567333,56.2542692 C45.2167333,56.2542692 39.4300667,50.4358077 39.4300667,43.2612692 C39.4300667,36.0867308 45.2167333,30.2682692 52.3567333,30.2682692 C59.4920667,30.2682692 65.2787333,36.0867308 65.2787333,43.2612692" id="Fill-13" fill="#5E4A79" mask="url(#mask-2)"></path>
                            <path d="M52.3544,31.3198154 C51.6357333,31.3198154 51.0477333,31.9063538 51.0477333,32.6336615 L51.0477333,33.9475077 L51.0477333,41.8212 L51.0477333,43.1350462 C51.0477333,43.8576615 51.6357333,44.4488923 52.3544,44.4488923 L53.6610667,44.4488923 L58.8830667,44.4488923 L60.1897333,44.4488923 C60.9084,44.4488923 61.4917333,43.8576615 61.4917333,43.1350462 C61.4917333,42.4077385 60.9084,41.8212 60.1897333,41.8212 L58.8830667,41.8212 L53.6610667,41.8212 L53.6610667,33.9475077 L53.6610667,32.6336615 C53.6610667,31.9063538 53.0730667,31.3198154 52.3544,31.3198154" id="Fill-14" fill="#FEFEFE" mask="url(#mask-2)"></path>
                            <path d="M52.3544,31.3198154 C58.8410667,31.3198154 64.1050667,36.5705077 64.1050667,43.1350462 C64.1050667,49.4368154 58.8410667,54.9502769 52.3544,54.9502769 C45.8677333,54.9502769 40.6037333,49.4368154 40.6037333,43.1350462 C40.6037333,36.5705077 45.8677333,31.3198154 52.3544,31.3198154 M52.3544,28.6921231 C44.4210667,28.6921231 37.9950667,34.9938923 37.9950667,43.1350462 C37.9950667,51.0087385 44.4210667,57.5732769 52.3544,57.5732769 C60.2877333,57.5732769 66.7137333,51.0087385 66.7137333,43.1350462 C66.7137333,34.9938923 60.2877333,28.6921231 52.3544,28.6921231" id="Fill-15" fill="#31BBA3" mask="url(#mask-2)"></path>
                        </g>
                    </g>
                </g>
            </g>
        </g>
    </g>
</svg>