<?xml version="1.0" encoding="UTF-8" standalone="no"?>
<svg width="70px" height="64px" viewBox="0 0 70 64" version="1.1" xmlns="http://www.w3.org/2000/svg" xmlns:xlink="http://www.w3.org/1999/xlink">
    <!-- Generator: sketchtool 39.1 (31720) - http://www.bohemiancoding.com/sketch -->
    <title>1E0EFD94-2494-47B7-B03F-562DFC5BC45D</title>
    <desc>Created with sketchtool.</desc>
    <defs></defs>
    <g id="Page-4" stroke="none" stroke-width="1" fill="none" fill-rule="evenodd">
        <g id="2.0" transform="translate(-529.000000, -2307.000000)">
            <g id="framework" transform="translate(0.000000, 2046.000000)">
                <g id="tree" transform="translate(452.000000, 261.000000)">
                    <g id="messenger">
                        <g transform="translate(77.000000, 0.000000)">
                            <path d="M26.3636364,49.5774648 C26.3636364,51.5686761 27.9918182,53.1830986 30,53.1830986 L51.8181818,53.1830986 L62.7272727,64 L62.7272727,53.1830986 L66.3636364,53.1830986 C68.3718182,53.1830986 70,51.5686761 70,49.5774648 L70,20.7323944 C70,18.7411831 68.3718182,17.1267606 66.3636364,17.1267606 L30,17.1267606 C27.9918182,17.1267606 26.3636364,18.7411831 26.3636364,20.7323944 L26.3636364,49.5774648 Z" id="Fill-1" fill="#31BBA3"></path>
                            <path d="M43.6363636,32.4507042 C43.6363636,34.4419155 42.0081818,36.056338 40,36.056338 L18.1818182,36.056338 L7.27272727,46.8732394 L7.27272727,36.056338 L3.63636364,36.056338 C1.62818182,36.056338 0,34.4419155 0,32.4507042 L0,3.6056338 C0,1.61442254 1.62818182,0 3.63636364,0 L40,0 C42.0081818,0 43.6363636,1.61442254 43.6363636,3.6056338 L43.6363636,32.4507042 Z" id="Fill-3" fill="#F3F2F1"></path>
                            <path d="M43.0318182,1.62073239 C42.3818182,0.645408451 41.2681818,0 40,0 L3.63636364,0 C1.62818182,0 0,1.61442254 0,3.6056338 L0,32.4507042 C0,34.4419155 1.62818182,36.056338 3.63636364,36.056338 L7.27272727,36.056338 L7.27272727,37.0785352 L43.0318182,1.62073239 Z" id="Fill-5" fill="#F3F2F1"></path>
                            <path d="M10.9090909,14.4225352 C12.9172727,14.4225352 14.5454545,16.0369577 14.5454545,18.028169 C14.5454545,20.0193803 12.9172727,21.6338028 10.9090909,21.6338028 C8.90090909,21.6338028 7.27272727,20.0193803 7.27272727,18.028169 C7.27272727,16.0369577 8.90090909,14.4225352 10.9090909,14.4225352" id="Fill-7" fill="#5C4777"></path>
                            <path d="M21.8181818,14.4225352 C23.8263636,14.4225352 25.4545455,16.0369577 25.4545455,18.028169 C25.4545455,20.0193803 23.8263636,21.6338028 21.8181818,21.6338028 C19.81,21.6338028 18.1818182,20.0193803 18.1818182,18.028169 C18.1818182,16.0369577 19.81,14.4225352 21.8181818,14.4225352" id="Fill-9" fill="#5C4777"></path>
                            <path d="M32.7272727,14.4225352 C34.7354545,14.4225352 36.3636364,16.0369577 36.3636364,18.028169 C36.3636364,20.0193803 34.7354545,21.6338028 32.7272727,21.6338028 C30.7190909,21.6338028 29.0909091,20.0193803 29.0909091,18.028169 C29.0909091,16.0369577 30.7190909,14.4225352 32.7272727,14.4225352" id="Fill-11" fill="#5C4777"></path>
                        </g>
                    </g>
                </g>
            </g>
        </g>
    </g>
</svg>