<?xml version="1.0" encoding="UTF-8" standalone="no"?>
<svg width="130px" height="30px" viewBox="0 0 130 30" version="1.1" xmlns="http://www.w3.org/2000/svg" xmlns:xlink="http://www.w3.org/1999/xlink">
    <!-- Generator: sketchtool 39.1 (31720) - http://www.bohemiancoding.com/sketch -->
    <title>A88231EA-0595-435D-A333-4A98FCE8C28D</title>
    <desc>Created with sketchtool.</desc>
    <defs>
        <path d="M25.1913054,25.7312821 C25.4057904,27.1458974 24.4082934,28.304359 22.9689521,28.304359 L2.37993413,28.304359 C0.941107784,28.304359 -0.0574191617,27.145641 0.157838323,25.7312821 L1.62498802,15.7738462 L23.7231257,15.7738462 L25.1913054,25.7312821 L25.1913054,25.7312821 Z" id="path-1"></path>
        <filter x="-50%" y="-50%" width="200%" height="200%" filterUnits="objectBoundingBox" id="filter-2">
            <feOffset dx="0" dy="0" in="SourceAlpha" result="shadowOffsetOuter1"></feOffset>
            <feGaussianBlur stdDeviation="0.5" in="shadowOffsetOuter1" result="shadowBlurOuter1"></feGaussianBlur>
            <feColorMatrix values="0 0 0 0 0   0 0 0 0 0   0 0 0 0 0  0 0 0 0.42040308 0" type="matrix" in="shadowBlurOuter1"></feColorMatrix>
        </filter>
        <linearGradient x1="50.0005854%" y1="-0.000818514805%" x2="50.0005854%" y2="99.9993861%" id="linearGradient-3">
            <stop stop-color="#E6E6E6" offset="0%"></stop>
            <stop stop-color="#FFFFFF" offset="100%"></stop>
        </linearGradient>
        <path d="M1.62524551,15.7738462 L0.158095808,5.81641026 C-0.0571616766,4.40384615 0.941365269,3.24589744 2.38019162,3.24589744 L22.9692096,3.24589744 C24.4085509,3.24589744 25.4060479,4.40410256 25.1915629,5.81641026 L23.7236407,15.7738462 L1.62524551,15.7738462 L1.62524551,15.7738462 Z" id="path-4"></path>
        <filter x="-50%" y="-50%" width="200%" height="200%" filterUnits="objectBoundingBox" id="filter-5">
            <feOffset dx="0" dy="0" in="SourceAlpha" result="shadowOffsetOuter1"></feOffset>
            <feGaussianBlur stdDeviation="0.5" in="shadowOffsetOuter1" result="shadowBlurOuter1"></feGaussianBlur>
            <feColorMatrix values="0 0 0 0 0   0 0 0 0 0   0 0 0 0 0  0 0 0 0.374037591 0" type="matrix" in="shadowBlurOuter1"></feColorMatrix>
        </filter>
    </defs>
    <g id="Page-4" stroke="none" stroke-width="1" fill="none" fill-rule="evenodd">
        <g id="2.0" transform="translate(-207.000000, -21.000000)">
            <g id="top">
                <g id="nav-bar" transform="translate(208.000000, 20.000000)">
                    <g id="nav">
                        <g id="LOGO" transform="translate(0.000000, 1.000000)">
                            <g id="Icon">
                                <path d="M22.7405629,20.0128205 C22.7405629,21.5028205 21.5159641,22.7238462 20.0186886,22.7238462 L5.33174251,22.7238462 C3.83549701,22.7238462 2.60806587,21.5025641 2.60806587,20.0128205 L2.60806587,2.76435897 C2.60806587,1.27461538 3.83575449,0.0530769231 5.33174251,0.0530769231 L20.0186886,0.0530769231 C21.5159641,0.0530769231 22.7405629,1.27461538 22.7405629,2.76435897 L22.7405629,20.0128205 L22.7405629,20.0128205 Z" id="Shape" fill="#5BC2A8"></path>
                                <g id="Shape">
                                    <use fill="black" fill-opacity="1" filter="url(#filter-2)" xlink:href="#path-1"></use>
                                    <use fill="#FFFFFF" fill-rule="evenodd" xlink:href="#path-1"></use>
                                </g>
                                <path d="M25.1913054,25.7312821 C25.4057904,27.1458974 24.4082934,28.304359 22.9689521,28.304359 L14.3622575,28.304359 L1.62498802,15.7738462 L23.7231257,15.7738462 L25.1913054,25.7312821 L25.1913054,25.7312821 Z" id="Shape" fill="url(#linearGradient-3)"></path>
                                <g id="Shape">
                                    <use fill="black" fill-opacity="1" filter="url(#filter-5)" xlink:href="#path-4"></use>
                                    <use fill="#BEC3C7" fill-rule="evenodd" xlink:href="#path-4"></use>
                                </g>
                                <path d="M4.23279641,16.1330769 C4.23279641,20.9753846 8.20012575,24.63 13.002479,24.63 C16.7916287,24.63 19.4460419,22.7284615 21.1168623,19.4587179 L18.8195808,19.4587179 C17.6851018,21.6279487 15.4792275,22.7582051 13.062988,22.7582051 C9.27435329,22.7582051 6.32074251,19.8458974 6.32074251,16.0728205 C6.32074251,15.9723077 6.32408982,15.8730769 6.32820958,15.7738462 L4.24206587,15.7738462 C4.23717365,15.8928205 4.23279641,16.0123077 4.23279641,16.1330769 L4.23279641,16.1330769 Z" id="Shape" fill="#5D4A78"></path>
                                <path d="M13.0627305,9.44974359 C15.5083234,9.44974359 17.6848443,10.7558974 18.8193234,12.894359 L21.1166048,12.894359 C19.7738204,9.56846154 16.5526826,7.57794872 13.0022216,7.57794872 C8.34972455,7.57794872 4.43646707,11.1638462 4.24206587,15.7735897 L6.32820958,15.7735897 C6.48398802,12.1784615 9.43476647,9.44974359 13.0627305,9.44974359 L13.0627305,9.44974359 Z" id="Shape" fill="#4A3966"></path>
                            </g>
                            <g id="Letter" transform="translate(26.778443, 2.051282)" fill="#FFFFFF">
                                <path d="M8.50164072,22.5787179 C3.90888024,22.5787179 0.000514970059,18.7474359 0.000514970059,14.1723077 C0.000514970059,9.47897436 3.75773653,5.52692308 8.50164072,5.52692308 C13.1551677,5.52692308 17.0635329,9.41846154 17.0635329,14.0528205 C17.0635329,18.7158974 13.1842635,22.5787179 8.50164072,22.5787179 L8.50164072,22.5787179 Z M8.53022156,7.39846154 C4.8314491,7.39846154 2.08897605,10.5482051 2.08897605,14.1412821 C2.08897605,17.675641 4.92105389,20.7066667 8.53022156,20.7066667 C12.2905329,20.7066667 14.9742994,17.6151282 14.9742994,13.9630769 C14.9742994,10.4271795 12.1105509,7.39846154 8.53022156,7.39846154 L8.53022156,7.39846154 Z" id="Shape"></path>
                                <path d="M32.4668024,22.1923077 L32.4668024,19.6666667 L32.4065509,19.6666667 C31.4523114,21.6569231 29.3337246,22.5784615 27.1865569,22.5784615 C25.0687425,22.5784615 22.9215749,21.8335897 21.5782754,20.1407692 C20.4154731,18.6866667 20.1458862,16.7258974 20.1458862,14.9130769 L20.1458862,5.9425641 L22.2343473,5.9425641 L22.2343473,14.8846154 C22.2343473,18.2394872 23.4584311,20.7066667 27.1862994,20.7066667 C28.5586946,20.7066667 29.6321497,20.3487179 30.6453533,19.3994872 C32.078515,18.0312821 32.3457844,16.4294872 32.3457844,14.5282051 L32.3457844,5.9425641 L34.4347605,5.9425641 L34.4347605,22.1920513 L32.4668024,22.1920513 L32.4668024,22.1923077 Z" id="Shape"></path>
                                <path d="M50.6424132,22.1923077 L50.6424132,13.2520513 C50.6424132,11.704359 50.2533533,9.89512821 49.0900359,8.79410256 C48.1355389,7.90205128 46.8532635,7.39871795 45.5418922,7.39871795 C44.2276886,7.39871795 42.9451557,7.90205128 41.9904012,8.79410256 C40.858497,9.86564103 40.4704671,11.6171795 40.4704671,13.1028205 L40.4704671,22.1923077 L38.381491,22.1923077 L38.381491,5.94282051 L40.4704671,5.94282051 L40.4704671,8.02282051 L40.5312335,8.02282051 C41.6049461,6.35897436 43.6035449,5.52692308 45.5418922,5.52692308 C50.2247725,5.52692308 52.7313892,8.76564103 52.7313892,13.2520513 L52.7313892,22.1923077 L50.6424132,22.1923077 L50.6424132,22.1923077 Z" id="Shape"></path>
                                <polygon id="Shape" points="60.5833952 7.81487179 60.5833952 22.1923077 58.4946766 22.1923077 58.4946766 7.81487179 55.065491 7.81487179 55.065491 5.94282051 58.4946766 5.94282051 58.4946766 0.210769231 60.5833952 0.210769231 60.5833952 5.94282051 64.4917605 5.94282051 64.4917605 7.81487179"></polygon>
                                <path d="M78.9356407,22.1923077 L78.9356407,19.6666667 L78.8756467,19.6666667 C77.9208922,21.6569231 75.8028204,22.5784615 73.6556527,22.5784615 C71.5375808,22.5784615 69.3906707,21.8335897 68.0473713,20.1407692 C66.8835389,18.6866667 66.6147246,16.7258974 66.6147246,14.9130769 L66.6147246,5.9425641 L68.7037006,5.9425641 L68.7037006,14.8846154 C68.7037006,18.2394872 69.9275269,20.7066667 73.6556527,20.7066667 C75.0277904,20.7066667 76.1017605,20.3487179 77.1147066,19.3994872 C78.5470958,18.0312821 78.8148802,16.4294872 78.8148802,14.5282051 L78.8148802,5.9425641 L80.9038563,5.9425641 L80.9038563,22.1920513 L78.9356407,22.1920513 L78.9356407,22.1923077 Z" id="Shape"></path>
                                <path d="M93.3221018,22.5787179 C90.7863892,22.5787179 88.4015629,21.4176923 86.9684012,19.3402564 L86.9102096,19.3402564 L86.9102096,27.895641 L84.8212335,27.895641 L84.8212335,5.94282051 L86.9102096,5.94282051 L86.9102096,8.79410256 L86.9684012,8.79410256 C88.459497,6.68512821 90.7575509,5.52666667 93.3221018,5.52666667 C98.1241976,5.52666667 102.092814,9.15 102.092814,14.0212821 C102.092814,18.9241026 98.2138024,22.5787179 93.3221018,22.5787179 L93.3221018,22.5787179 Z M93.3221018,7.39846154 C89.6228144,7.39846154 86.7907365,10.4582051 86.7907365,14.0815385 C86.7907365,17.7069231 89.6228144,20.7066667 93.3221018,20.7066667 C97.1400898,20.7066667 100.003838,17.9148718 100.003838,14.1120513 C100.003838,10.2794872 97.2011138,7.39846154 93.3221018,7.39846154 L93.3221018,7.39846154 Z" id="Shape"></path>
                            </g>
                        </g>
                    </g>
                </g>
            </g>
        </g>
    </g>
</svg>