<?xml version="1.0" encoding="UTF-8" standalone="no"?>
<svg width="62px" height="62px" viewBox="0 0 62 62" version="1.1" xmlns="http://www.w3.org/2000/svg" xmlns:xlink="http://www.w3.org/1999/xlink">
    <!-- Generator: sketchtool 39.1 (31720) - http://www.bohemiancoding.com/sketch -->
    <title>1785118E-4AC6-4CCB-8640-93438DFAEADE</title>
    <desc>Created with sketchtool.</desc>
    <defs>
        <filter x="-50%" y="-50%" width="200%" height="200%" filterUnits="objectBoundingBox" id="filter-1">
            <feOffset dx="0" dy="-4" in="SourceAlpha" result="shadowOffsetOuter1"></feOffset>
            <feGaussianBlur stdDeviation="10" in="shadowOffsetOuter1" result="shadowBlurOuter1"></feGaussianBlur>
            <feColorMatrix values="0 0 0 0 0   0 0 0 0 0   0 0 0 0 0  0 0 0 0.1 0" type="matrix" in="shadowBlurOuter1" result="shadowMatrixOuter1"></feColorMatrix>
            <feMerge>
                <feMergeNode in="shadowMatrixOuter1"></feMergeNode>
                <feMergeNode in="SourceGraphic"></feMergeNode>
            </feMerge>
        </filter>
    </defs>
    <g id="Page-4" stroke="none" stroke-width="1" fill="none" fill-rule="evenodd">
        <g id="2.0" transform="translate(-577.000000, -5785.000000)" fill="#FB686C">
            <g id="pricing" transform="translate(0.000000, 5111.000000)">
                <g id="Group" filter="url(#filter-1)" transform="translate(272.000000, 288.000000)">
                    <g id="payroll-employees" transform="translate(0.000000, 409.000000)">
                        <g id="checkmarks-copy-2" transform="translate(324.000000, 0.000000)">
                            <path d="M12,0 C5.4,0 0,5.4 0,12 C0,18.6 5.4,24 12,24 C18.6,24 24,18.6 24,12 C24,5.4 18.6,0 12,0 L12,0 Z M18,16.49984 L16.49984,18 L12,13.50016 L7.50016,18 L6,16.49984 L10.49984,12 L6,7.50016 L7.50016,6 L12,10.49984 L16.49984,6 L18,7.50016 L13.50016,12 L18,16.49984 Z" id="Page-1-Copy-5"></path>
                        </g>
                    </g>
                </g>
            </g>
        </g>
    </g>
</svg>