<?xml version="1.0" encoding="UTF-8"?>
<svg width="24px" height="24px" viewBox="0 0 24 24" version="1.1" xmlns="http://www.w3.org/2000/svg" xmlns:xlink="http://www.w3.org/1999/xlink" xmlns:sketch="http://www.bohemiancoding.com/sketch/ns">
    <!-- Generator: Sketch 3.4.2 (15855) - http://www.bohemiancoding.com/sketch -->
    <title>not-included-icon</title>
    <desc>Created with Sketch.</desc>
    <defs></defs>
    <g id="Page-1" stroke="none" stroke-width="1" fill="none" fill-rule="evenodd" sketch:type="MSPage">
        <g id="not-included-icon" sketch:type="MSLayerGroup" fill="#FB686C">
            <g id="Page-4" sketch:type="MSShapeGroup">
                <g id="2.0">
                    <g id="pricing">
                        <g id="Group">
                            <g id="payroll-employees">
                                <g id="checkmarks-copy-2">
                                    <path d="M12,0 C5.4,0 0,5.4 0,12 C0,18.6 5.4,24 12,24 C18.6,24 24,18.6 24,12 C24,5.4 18.6,0 12,0 L12,0 L12,0 Z M18,16.49984 L16.49984,18 L12,13.50016 L7.50016,18 L6,16.49984 L10.49984,12 L6,7.50016 L7.50016,6 L12,10.49984 L16.49984,6 L18,7.50016 L13.50016,12 L18,16.49984 L18,16.49984 Z" id="Page-1-Copy-5"></path>
                                </g>
                            </g>
                        </g>
                    </g>
                </g>
            </g>
        </g>
    </g>
</svg>