<?xml version="1.0" encoding="UTF-8" standalone="no"?>
<svg width="60px" height="52px" viewBox="0 0 60 52" version="1.1" xmlns="http://www.w3.org/2000/svg" xmlns:xlink="http://www.w3.org/1999/xlink">
    <!-- Generator: sketchtool 39.1 (31720) - http://www.bohemiancoding.com/sketch -->
    <title>562F4C82-7301-4D7F-921C-68BAEA70D625</title>
    <desc>Created with sketchtool.</desc>
    <defs></defs>
    <g id="Page-4" stroke="none" stroke-width="1" fill="none" fill-rule="evenodd">
        <g id="2.0" transform="translate(-837.000000, -2620.000000)">
            <g id="framework" transform="translate(0.000000, 2046.000000)">
                <g id="tree" transform="translate(452.000000, 261.000000)">
                    <g id="payments" transform="translate(306.000000, 313.000000)">
                        <g transform="translate(79.000000, 0.000000)">
                            <polygon id="Fill-1" fill="#483863" points="0 44.5704381 60 44.5704381 60 9.90377143 0 9.90377143"></polygon>
                            <polygon id="Fill-2" fill="#5E4A79" points="0 39.5264381 60 39.5264381 60 7.42758095 0 7.42758095"></polygon>
                            <polygon id="Fill-3" fill="#5E4A79" points="0 37.1443429 60 37.1443429 60 0.00148571429 0 0.00148571429"></polygon>
                            <g id="Group-38" transform="translate(2.500000, 4.889486)">
                                <path d="M12.12125,0.0628952381 L12.12125,0.0628952381 C12.12125,5.51051429 8.18625,9.96765714 3.33375,9.96765714 L3.33375,19.6248 C8.18625,19.6248 12.12125,24.0819429 12.12125,29.777181 L42.87875,29.777181 L42.87875,29.5295619 C42.87875,24.0819429 46.81375,19.6248 51.66625,19.6248 L51.66625,9.96765714 C46.81375,9.96765714 42.87875,5.51051429 42.87875,0.0628952381 L12.12125,0.0628952381 Z" id="Fill-4" fill="#ECF0F1"></path>
                                <path d="M37.5,14.9200381 C37.5,21.7568 33.0225,27.3009905 27.5,27.3009905 C21.9775,27.3009905 17.5,21.7568 17.5,14.9200381 C17.5,8.08327619 21.9775,2.53908571 27.5,2.53908571 C33.0225,2.53908571 37.5,8.08327619 37.5,14.9200381" id="Fill-6" fill="#5E4A79"></path>
                                <path d="M22.499,9.22182857 L28.679,7.56030476 L29.2965,7.56030476 L29.2965,19.7406857 C29.2965,20.5702095 29.354,21.1248762 29.464,21.4022095 C29.5915,21.6795429 29.839,21.6795429 30.214,21.9544 L32.499,21.9544 L32.499,22.5090667 L22.949,22.5090667 L22.949,21.9544 L25.2715,21.9544 C25.619,21.6795429 25.864,21.6795429 26.0015,21.4022095 C26.139,21.1248762 26.2065,20.5702095 26.2065,19.7406857 L26.2065,11.9902095 C26.2065,10.8833524 26.144,10.0513524 26.019,9.77649524 C25.9315,9.4991619 25.769,9.4991619 25.5315,9.22182857 L24.709,9.22182857 C24.2465,9.22182857 23.604,9.22182857 22.779,9.4991619 L22.499,9.22182857" id="Fill-8" fill="#ECF0F1"></path>
                                <path d="M7.5005,39.6190476 C5.313,39.6190476 3.3955,40.1192381 2.0305,40.8571429 L0.0005,40.8571429 L0.0005,41.5529524 L0.0005,41.9417143 L0.0005,42.0952381 L0.0005,42.2512381 L0.0005,43.3333333 C0.0005,45.3860952 3.358,47.047619 7.5005,47.047619 C11.643,47.047619 15.0005,45.3860952 15.0005,43.3333333 L15.0005,42.2512381 L15.0005,42.0952381 L15.0005,41.9417143 L15.0005,41.5529524 L15.0005,40.8571429 L12.9705,40.8571429 C11.6055,40.1192381 9.688,39.6190476 7.5005,39.6190476" id="Fill-10" fill="#45A88C"></path>
                                <path d="M15.00025,40.827181 C15.00025,42.8774667 11.64275,44.5414667 7.50025,44.5414667 C3.35775,44.5414667 0.00025,42.8774667 0.00025,40.827181 C0.00025,38.7768952 3.35775,37.1128952 7.50025,37.1128952 C11.64275,37.1128952 15.00025,38.7768952 15.00025,40.827181" id="Fill-12" fill="#61BDA6"></path>
                                <path d="M7.5005,34.6666667 C5.313,34.6666667 3.3955,35.1668571 2.0305,35.9047619 L0.0005,35.9047619 L0.0005,36.6005714 L0.0005,36.9893333 L0.0005,37.1428571 L0.0005,37.2988571 L0.0005,38.3809524 C0.0005,40.4337143 3.358,42.0952381 7.5005,42.0952381 C11.643,42.0952381 15.0005,40.4337143 15.0005,38.3809524 L15.0005,37.2988571 L15.0005,37.1428571 L15.0005,36.9893333 L15.0005,36.6005714 L15.0005,35.9047619 L12.9705,35.9047619 C11.6055,35.1668571 9.688,34.6666667 7.5005,34.6666667" id="Fill-14" fill="#45A88C"></path>
                                <path d="M15.00025,35.8748 C15.00025,37.9250857 11.64275,39.5890857 7.50025,39.5890857 C3.35775,39.5890857 0.00025,37.9250857 0.00025,35.8748 C0.00025,33.8245143 3.35775,32.1605143 7.50025,32.1605143 C11.64275,32.1605143 15.00025,33.8245143 15.00025,35.8748" id="Fill-16" fill="#61BDA6"></path>
                                <path d="M7.5005,29.714781 C5.313,29.714781 3.3955,30.2149714 2.0305,30.9528762 L0.0005,30.9528762 L0.0005,31.6486857 L0.0005,32.0374476 L0.0005,32.1909714 L0.0005,32.3469714 L0.0005,33.4290667 C0.0005,35.4818286 3.358,37.1433524 7.5005,37.1433524 C11.643,37.1433524 15.0005,35.4818286 15.0005,33.4290667 L15.0005,32.3469714 L15.0005,32.1909714 L15.0005,32.0374476 L15.0005,31.6486857 L15.0005,30.9528762 L12.9705,30.9528762 C11.6055,30.2149714 9.688,29.714781 7.5005,29.714781" id="Fill-18" fill="#45A88C"></path>
                                <path d="M15.00025,30.9229143 C15.00025,32.9732 11.64275,34.6372 7.50025,34.6372 C3.35775,34.6372 0.00025,32.9732 0.00025,30.9229143 C0.00025,28.8726286 3.35775,27.2086286 7.50025,27.2086286 C11.64275,27.2086286 15.00025,28.8726286 15.00025,30.9229143" id="Fill-20" fill="#61BDA6"></path>
                                <path d="M7.5005,24.7621524 C5.313,24.7621524 3.3955,25.2623429 2.0305,26.0002476 L0.0005,26.0002476 L0.0005,26.6960571 L0.0005,27.084819 L0.0005,27.2383429 L0.0005,27.3943429 L0.0005,28.4764381 C0.0005,30.5292 3.358,32.1907238 7.5005,32.1907238 C11.643,32.1907238 15.0005,30.5292 15.0005,28.4764381 L15.0005,27.3943429 L15.0005,27.2383429 L15.0005,27.084819 L15.0005,26.6960571 L15.0005,26.0002476 L12.9705,26.0002476 C11.6055,25.2623429 9.688,24.7621524 7.5005,24.7621524" id="Fill-22" fill="#45A88C"></path>
                                <path d="M15.00025,25.9702857 C15.00025,28.0205714 11.64275,29.6845714 7.50025,29.6845714 C3.35775,29.6845714 0.00025,28.0205714 0.00025,25.9702857 C0.00025,23.92 3.35775,22.256 7.50025,22.256 C11.64275,22.256 15.00025,23.92 15.00025,25.9702857" id="Fill-24" fill="#61BDA6"></path>
                                <path d="M24.99875,39.6190476 C22.81125,39.6190476 20.89375,40.1192381 19.52875,40.8571429 L17.49875,40.8571429 L17.49875,41.5529524 L17.49875,41.9417143 L17.49875,42.0952381 L17.49875,42.2512381 L17.49875,43.3333333 C17.49875,45.3860952 20.85625,47.047619 24.99875,47.047619 C29.14125,47.047619 32.49875,45.3860952 32.49875,43.3333333 L32.49875,42.2512381 L32.49875,42.0952381 L32.49875,41.9417143 L32.49875,41.5529524 L32.49875,40.8571429 L30.46875,40.8571429 C29.10375,40.1192381 27.18625,39.6190476 24.99875,39.6190476" id="Fill-26" fill="#45A88C"></path>
                                <path d="M32.49825,40.827181 C32.49825,42.8774667 29.14075,44.5414667 24.99825,44.5414667 C20.85575,44.5414667 17.49825,42.8774667 17.49825,40.827181 C17.49825,38.7768952 20.85575,37.1128952 24.99825,37.1128952 C29.14075,37.1128952 32.49825,38.7768952 32.49825,40.827181" id="Fill-28" fill="#61BDA6"></path>
                                <path d="M29.99875,37.1440952 C27.81125,37.1440952 25.89375,37.6442857 24.52875,38.3821905 L22.49875,38.3821905 L22.49875,39.078 L22.49875,39.4667619 L22.49875,39.6202857 L22.49875,39.7762857 L22.49875,40.858381 C22.49875,42.9111429 25.85625,44.5726667 29.99875,44.5726667 C34.14125,44.5726667 37.49875,42.9111429 37.49875,40.858381 L37.49875,39.7762857 L37.49875,39.6202857 L37.49875,39.4667619 L37.49875,39.078 L37.49875,38.3821905 L35.46875,38.3821905 C34.10375,37.6442857 32.18625,37.1440952 29.99875,37.1440952" id="Fill-30" fill="#45A88C"></path>
                                <path d="M37.4985,38.3522286 C37.4985,40.4025143 34.141,42.0665143 29.9985,42.0665143 C25.856,42.0665143 22.4985,40.4025143 22.4985,38.3522286 C22.4985,36.3019429 25.856,34.6379429 29.9985,34.6379429 C34.141,34.6379429 37.4985,36.3019429 37.4985,38.3522286" id="Fill-32" fill="#61BDA6"></path>
                                <path d="M7.5005,19.8095238 C5.313,19.8095238 3.3955,20.3097143 2.0305,21.047619 L0.0005,21.047619 L0.0005,21.7434286 L0.0005,22.1321905 L0.0005,22.2857143 L0.0005,22.4417143 L0.0005,23.5238095 C0.0005,25.5765714 3.358,27.2380952 7.5005,27.2380952 C11.643,27.2380952 15.0005,25.5765714 15.0005,23.5238095 L15.0005,22.4417143 L15.0005,22.2857143 L15.0005,22.1321905 L15.0005,21.7434286 L15.0005,21.047619 L12.9705,21.047619 C11.6055,20.3097143 9.688,19.8095238 7.5005,19.8095238" id="Fill-34" fill="#45A88C"></path>
                                <path d="M15.00025,21.0176571 C15.00025,23.0679429 11.64275,24.7319429 7.50025,24.7319429 C3.35775,24.7319429 0.00025,23.0679429 0.00025,21.0176571 C0.00025,18.9673714 3.35775,17.3033714 7.50025,17.3033714 C11.64275,17.3033714 15.00025,18.9673714 15.00025,21.0176571" id="Fill-36" fill="#61BDA6"></path>
                            </g>
                        </g>
                    </g>
                </g>
            </g>
        </g>
    </g>
</svg>