<?xml version="1.0" encoding="UTF-8" standalone="no"?>
<svg width="116px" height="116px" viewBox="0 0 116 116" version="1.1" xmlns="http://www.w3.org/2000/svg" xmlns:xlink="http://www.w3.org/1999/xlink">
    <!-- Generator: sketchtool 39.1 (31720) - http://www.bohemiancoding.com/sketch -->
    <title>1520BF77-D38F-4AE8-8246-EF0C7DFAA9A0</title>
    <desc>Created with sketchtool.</desc>
    <defs></defs>
    <g id="Page-4" stroke="none" stroke-width="1" fill="none" fill-rule="evenodd">
        <g id="2.0" transform="translate(-957.000000, -332.000000)">
            <g id="top">
                <g id="Group-12" transform="translate(386.000000, 332.000000)">
                    <g id="Group-16">
                        <g id="performance" transform="translate(552.000000, 0.000000)">
                            <g id="Group-13-Copy" transform="translate(19.000000, 0.000000)">
                                <path d="M58,116 C90.0325155,116 116,90.0325155 116,58 C116,25.9674845 90.0325155,0 58,0 C25.9674845,0 0,25.9674845 0,58 C0,90.0325155 25.9674845,116 58,116 Z" id="Oval-2" fill-opacity="0.1" fill="#D8D8D8"></path>
                                <g id="performance-copy" transform="translate(33.000000, 33.000000)">
                                    <g id="performance">
                                        <path d="M22.4233918,8.22122093 C33.4044921,8.22122093 42.3064327,17.0714061 42.3064327,27.9886628 C42.3064327,38.9059195 33.4044921,47.7561047 22.4233918,47.7561047 C11.4422915,47.7561047 2.54035088,38.9059195 2.54035088,27.9886628 C2.54035088,17.0714061 11.4422915,8.22122093 22.4233918,8.22122093 L22.4233918,8.22122093 Z" id="Shape" fill="#FFFFFF"></path>
                                        <path d="M22.5567251,49.8694767 C30.4737131,49.8686911 37.8107664,45.7415784 41.888794,38.9951349 C45.9668217,32.2486914 46.1888036,23.870591 42.4736842,16.9200581 C42.2887174,16.9452793 42.1021936,16.9575189 41.9154971,16.956686 C41.8102339,16.956686 41.6997076,16.9514535 41.5891813,16.9462209 L38.719883,16.7264535 L36.655848,18.7776163 C41.1003398,25.8981559 39.4716882,35.1998374 32.868461,40.4084353 C26.2652338,45.6170331 16.7839016,45.0788601 10.8198689,39.1569279 C4.85583627,33.2349957 4.30263478,23.8094693 9.53341321,17.2381109 C14.7641916,10.6667524 24.1182206,9.03591448 31.2859649,13.4456395 L33.1549708,11.5880814 L32.9020468,8.31773256 C32.881833,8.05806712 32.8853562,7.79711389 32.9125731,7.5380814 C24.6048579,3.2656067 14.506588,4.53546906 7.53052892,10.7298858 C0.554469823,16.9243026 -1.85102711,26.7572049 1.48430219,35.4449275 C4.81963149,44.1326501 13.2033146,49.8714705 22.5567251,49.8694767 L22.5567251,49.8694767 Z M22.5567251,21.6607558 C22.7040936,21.6607558 22.8515595,21.6659884 22.9991228,21.6764535 L27.1634503,17.5375 L27.252924,17.4485465 C22.3660438,15.1776053 16.5445204,16.7236569 13.4476969,21.1148709 C10.3508733,25.506085 10.8732019,31.4741517 14.6863528,35.2676126 C18.4995038,39.0610734 24.5021287,39.5842671 28.9210462,36.50832 C33.3399636,33.4323729 34.8988623,27.6457076 32.6178363,22.7857558 L32.5283626,22.8747093 L28.3640351,27.0136628 C28.3745614,27.1601744 28.3798246,27.306686 28.3798246,27.4531977 C28.3795878,29.7959717 26.9597591,31.907881 24.7824909,32.8040143 C22.6052226,33.7001475 20.0993614,33.2039973 18.4335425,31.5469486 C16.7677236,29.8898999 16.2700557,27.3983341 17.1726316,25.2342195 C18.0752075,23.070105 20.2002509,21.6596976 22.5567251,21.6607558 L22.5567251,21.6607558 Z M45.8023392,7.46482558 L47.1397661,6.13575581 C47.4329207,5.84539959 47.597706,5.45093487 47.597706,5.03953488 C47.597706,4.6281349 47.4329207,4.23367018 47.1397661,3.94331395 L46.2131579,3.01715116 C45.9219698,2.72574835 45.5258805,2.56187863 45.1127193,2.56187863 C44.6995581,2.56187863 44.3034688,2.72574835 44.0122807,3.01715116 L42.4804094,4.53982558 L42.1643275,0.484593023 C42.1478652,0.28169984 42.0145459,0.106711161 41.8225548,0.0359983035 C41.6305637,-0.0347145542 41.4147484,0.0116831739 41.2692982,0.15494186 L35.2412281,6.14622093 C34.6980841,6.68656052 34.4192527,7.43569713 34.4777778,8.19738372 L34.4935673,8.43284884 L34.7830409,12.184593 L32.6035088,14.3508721 L28.6807018,18.2502907 L28.5912281,18.3392442 L24.7944444,22.1107558 L23.1096491,23.7851744 C22.8873359,24.004405 22.7523191,24.2962042 22.7295322,24.606686 L22.6239766,25.9200581 C22.5946019,26.2839367 22.7195,26.6434661 22.9684886,26.9117643 C23.2174772,27.1800626 23.5679043,27.3327209 23.9350877,27.3328488 L24.0035088,27.3328488 L25.398538,27.2648256 C25.7244575,27.2500982 26.0327972,27.1136937 26.2619883,26.8828488 L27.9309942,25.2241279 L31.7269006,21.4514535 L31.8163743,21.3625 L35.7385965,17.4642442 L38.1070175,15.109593 L41.5502924,15.3712209 L41.702924,15.381686 C41.771345,15.3869186 41.8397661,15.3869186 41.902924,15.3869186 C42.601808,15.3870567 43.272394,15.1124401 43.7684211,14.6229651 L49.7918129,8.6369186 C49.9357435,8.49225437 49.9822666,8.27775442 49.9110903,8.08697639 C49.839914,7.89619837 49.6639476,7.76374334 49.4599415,7.74738372 L45.8023392,7.46482558 Z" id="Forma_1" fill="#2DBEA7"></path>
                                    </g>
                                </g>
                            </g>
                        </g>
                    </g>
                </g>
            </g>
        </g>
    </g>
</svg>