<?xml version="1.0" encoding="UTF-8" standalone="no"?>
<svg width="50px" height="50px" viewBox="0 0 50 50" version="1.1" xmlns="http://www.w3.org/2000/svg" xmlns:xlink="http://www.w3.org/1999/xlink">
    <!-- Generator: sketchtool 39.1 (31720) - http://www.bohemiancoding.com/sketch -->
    <title>406C38AC-6C3C-4EB5-909C-CC44CF4A88AB</title>
    <desc>Created with sketchtool.</desc>
    <defs></defs>
    <g id="Page-4" stroke="none" stroke-width="1" fill="none" fill-rule="evenodd">
        <g id="2.0" transform="translate(-812.000000, -4426.000000)">
            <g id="pricing" transform="translate(0.000000, 3105.000000)">
                <g id="Group-7" transform="translate(272.000000, 1320.000000)">
                    <g id="performance-metrics-card" transform="translate(466.000000, 1.000000)">
                        <g id="performance-icon" transform="translate(74.000000, 0.000000)">
                            <circle id="Oval" fill="#5D4A78" cx="25" cy="25" r="25"></circle>
                            <g id="performance-copy" transform="translate(13.000000, 13.000000)">
                                <g id="performance">
                                    <path d="M11.2116959,4.11061047 C16.7022461,4.11061047 21.1532164,8.53570305 21.1532164,13.9943314 C21.1532164,19.4529597 16.7022461,23.8780523 11.2116959,23.8780523 C5.72114576,23.8780523 1.27017544,19.4529597 1.27017544,13.9943314 C1.27017544,8.53570305 5.72114576,4.11061047 11.2116959,4.11061047 L11.2116959,4.11061047 Z" id="Shape" fill="#FFFFFF"></path>
                                    <path d="M11.2783626,24.9347384 C15.2368566,24.9343455 18.9053832,22.8707892 20.944397,19.4975675 C22.9834108,16.1243457 23.0944018,11.9352955 21.2368421,8.46002907 C21.1443587,8.47263967 21.0510968,8.47875945 20.9577485,8.47834302 C20.905117,8.47834302 20.8498538,8.47572674 20.7945906,8.47311047 L19.3599415,8.36322674 L18.327924,9.38880814 C20.5501699,12.949078 19.7358441,17.5999187 16.4342305,20.2042176 C13.1326169,22.8085166 8.39195078,22.5394301 5.40993446,19.5784639 C2.42791814,16.6174978 2.15131739,11.9047346 4.76670661,8.61905543 C7.38209582,5.33337621 12.0591103,4.51795724 15.6429825,6.72281977 L16.5774854,5.7940407 L16.4510234,4.15886628 C16.4409165,4.02903356 16.4426781,3.89855694 16.4562865,3.7690407 C12.302429,1.63280335 7.25329401,2.26773453 3.76526446,5.36494291 C0.277234911,8.46215129 -0.925513557,13.3786025 0.742151094,17.7224638 C2.40981575,22.0663251 6.6016573,24.9357352 11.2783626,24.9347384 L11.2783626,24.9347384 Z M11.2783626,10.8303779 C11.3520468,10.8303779 11.4257797,10.8329942 11.4995614,10.8382267 L13.5817251,8.76875 L13.626462,8.72427326 C11.1830219,7.58880265 8.27226021,8.36182845 6.72384843,10.5574355 C5.17543665,12.7530425 5.43660094,15.7370759 7.34317642,17.6338063 C9.24975189,19.5305367 12.2510644,19.7921335 14.4605231,18.25416 C16.6699818,16.7161864 17.4494311,13.8228538 16.3089181,11.3928779 L16.2641813,11.4373547 L14.1820175,13.5068314 C14.1872807,13.5800872 14.1899123,13.653343 14.1899123,13.7265988 C14.1897939,14.8979858 13.4798796,15.9539405 12.3912454,16.4020071 C11.3026113,16.8500738 10.0496807,16.6019987 9.21677125,15.7734743 C8.38386178,14.9449499 8.13502785,13.6991671 8.58631581,12.6171098 C9.03760377,11.5350525 10.1001255,10.8298488 11.2783626,10.8303779 L11.2783626,10.8303779 Z M22.9011696,3.73241279 L23.569883,3.06787791 C23.7164603,2.92269979 23.798853,2.72546744 23.798853,2.51976744 C23.798853,2.31406745 23.7164603,2.11683509 23.569883,1.97165698 L23.1065789,1.50857558 C22.9609849,1.36287417 22.7629403,1.28093932 22.5563596,1.28093932 C22.349779,1.28093932 22.1517344,1.36287417 22.0061404,1.50857558 L21.2402047,2.26991279 L21.0821637,0.242296512 C21.0739326,0.14084992 21.0072729,0.0533555806 20.9112774,0.0179991517 C20.8152819,-0.0173572771 20.7073742,0.00584158694 20.6346491,0.0774709302 L17.620614,3.07311047 C17.349042,3.34328026 17.2096264,3.71784856 17.2388889,4.09869186 L17.2467836,4.21642442 L17.3915205,6.09229651 L16.3017544,7.17543605 L14.3403509,9.12514535 L14.295614,9.16962209 L12.3972222,11.0553779 L11.5548246,11.8925872 C11.4436679,12.0022025 11.3761596,12.1481021 11.3647661,12.303343 L11.3119883,12.9600291 C11.297301,13.1419684 11.35975,13.321733 11.4842443,13.4558822 C11.6087386,13.5900313 11.7839522,13.6663605 11.9675439,13.6664244 L12.0017544,13.6664244 L12.699269,13.6324128 C12.8622288,13.6250491 13.0163986,13.5568468 13.1309942,13.4414244 L13.9654971,12.612064 L15.8634503,10.7257267 L15.9081871,10.68125 L17.8692982,8.73212209 L19.0535088,7.55479651 L20.7751462,7.68561047 L20.851462,7.69084302 C20.8856725,7.6934593 20.919883,7.6934593 20.951462,7.6934593 C21.300904,7.69352835 21.636197,7.55622003 21.8842105,7.31148256 L24.8959064,4.3184593 C24.9678717,4.24612719 24.9911333,4.13887721 24.9555451,4.0434882 C24.919957,3.94809918 24.8319738,3.88187167 24.7299708,3.87369186 L22.9011696,3.73241279 Z" id="Forma_1" fill="#2DBEA7"></path>
                                </g>
                            </g>
                        </g>
                    </g>
                </g>
            </g>
        </g>
    </g>
</svg>