<?xml version="1.0" encoding="UTF-8" standalone="no"?>
<svg width="42px" height="36px" viewBox="0 0 42 36" version="1.1" xmlns="http://www.w3.org/2000/svg" xmlns:xlink="http://www.w3.org/1999/xlink">
    <!-- Generator: sketchtool 39.1 (31720) - http://www.bohemiancoding.com/sketch -->
    <title>27457224-CE07-4563-94F9-86B8C37A048C</title>
    <desc>Created with sketchtool.</desc>
    <defs></defs>
    <g id="Page-4" stroke="none" stroke-width="1" fill="none" fill-rule="evenodd" opacity="0.5">
        <g id="2.0" transform="translate(-699.000000, -4762.000000)" fill="#FFFFFF">
            <g id="quote" transform="translate(0.000000, 4698.000000)">
                <g transform="translate(297.000000, 64.000000)" id="Group-21">
                    <g transform="translate(402.000000, 0.000000)">
                        <g id="Page-1">
                            <path d="M41.5434783,18.0475932 L30.204087,18.0475932 C30.2923478,11.7933559 35.3183478,6.71918644 41.5434783,6.57823729 L41.5434783,0.0976271186 C31.752,0.241016949 23.8225217,8.22081356 23.7342609,18.0475932 L23.7293913,18.0475932 L23.7293913,35.9023729 L41.5434783,35.9023729 L41.5434783,18.0475932 Z" id="Fill-1"></path>
                            <path d="M18.2706087,35.9023729 L18.2706087,18.0451525 L6.93121739,18.0451525 C7.01886957,11.7933559 12.0454783,6.71918644 18.2706087,6.57579661 L18.2706087,0.0976271186 C8.47913043,0.238576271 0.549043478,8.21837288 0.461391304,18.0475932 L0.456521739,18.0475932 L0.456521739,35.9023729 L18.2706087,35.9023729 Z" id="Fill-2"></path>
                        </g>
                    </g>
                </g>
            </g>
        </g>
    </g>
</svg>