<?xml version="1.0" encoding="UTF-8" standalone="no"?>
<svg width="58px" height="74px" viewBox="0 0 58 74" version="1.1" xmlns="http://www.w3.org/2000/svg" xmlns:xlink="http://www.w3.org/1999/xlink">
    <!-- Generator: sketchtool 39.1 (31720) - http://www.bohemiancoding.com/sketch -->
    <title>FD85CFEE-8C9A-44F5-8A3B-65F5116EFBFE</title>
    <desc>Created with sketchtool.</desc>
    <defs>
        <path d="M52.826087,9.3153808 C35.654087,9.3153808 27.9755217,0.486935718 27.9015652,0.398242813 C27.4554783,-0.132747604 26.5445217,-0.132747604 26.0984348,0.398242813 C26.0233043,0.489269742 18.4245652,9.3153808 1.17391304,9.3153808 C0.525913043,9.3153808 0,9.83703512 0,10.4823927 L0,32.754815 C0,44.9302502 5.50565217,56.5011733 14.727913,63.7051378 C18.4456957,66.6109974 22.4616522,68.7127859 26.6654348,69.9521525 C26.7757826,69.9836618 26.8873043,70 27,70 C27.1126957,70 27.2242174,69.9836618 27.3345652,69.9521525 C31.5383478,68.7127859 35.5543043,66.6109974 39.272087,63.7051378 C48.4943478,56.5011733 54,44.9302502 54,32.754815 L54,10.4823927 C54,9.83703512 53.474087,9.3153808 52.826087,9.3153808 L52.826087,9.3153808 L52.826087,9.3153808 Z" id="path-1"></path>
        <mask id="mask-2" maskContentUnits="userSpaceOnUse" maskUnits="objectBoundingBox" x="-2" y="-2" width="58" height="74">
            <rect x="-2" y="-2" width="58" height="74" fill="white"></rect>
            <use xlink:href="#path-1" fill="black"></use>
        </mask>
    </defs>
    <g id="Page-4" stroke="none" stroke-width="1" fill="none" fill-rule="evenodd">
        <g id="2.0" transform="translate(-843.000000, -2802.000000)">
            <g id="framework" transform="translate(0.000000, 2046.000000)">
                <g id="tree" transform="translate(452.000000, 261.000000)">
                    <g id="secure" transform="translate(306.000000, 497.000000)">
                        <g id="icon" transform="translate(87.000000, 0.000000)">
                            <g id="Shape-Copy">
                                <use fill="#5D4A78" fill-rule="evenodd" xlink:href="#path-1"></use>
                                <use stroke="#5BC2A7" mask="url(#mask-2)" stroke-width="4" xlink:href="#path-1"></use>
                            </g>
                            <path d="M47.0703913,36.1508196 C47.0328261,36.1543207 46.992913,36.1566547 46.9553478,36.1566547 C46.3578261,36.1566547 45.8471739,35.7061881 45.7884783,35.1040099 C45.5419565,32.6066045 44.780087,29.9213101 43.389,26.6525097 C40.7441739,20.4370043 34.6480435,16.4213163 27.8593043,16.4213163 C25.6171304,16.4213163 23.4324783,16.8566117 21.3675652,17.7143655 C20.5822174,18.0399618 19.8743478,18.5266058 19.1253913,19.040091 C18.8354348,19.2396501 18.5443043,19.4392091 18.2484783,19.6305991 C17.7037826,19.9818696 16.9783043,19.8278241 16.6249565,19.2874976 C16.2704348,18.747171 16.4253913,18.0247907 16.968913,17.6723531 C17.2459565,17.4938002 17.5183043,17.3070783 17.7918261,17.1203564 C18.6076957,16.5590237 19.4505652,15.9801858 20.4624783,15.5612285 C22.8161739,14.5832726 25.3048696,14.0872925 27.8593043,14.0872925 C35.5930435,14.0872925 42.5367391,18.6631462 45.5513478,25.7434074 C47.0375217,29.2351071 47.8557391,32.1386327 48.1245652,34.8752756 C48.1879565,35.5171322 47.7160435,36.087801 47.0703913,36.1508196 L47.0703913,36.1508196 L47.0703913,36.1508196 Z" id="Path" fill="#FFFFFF"></path>
                            <path d="M43.511087,42.9941774 L43.4336087,45.5242593 C43.4171739,46.1579467 42.8947826,46.6597618 42.2608696,46.6597618 L42.2291739,46.6597618 C41.58,46.6410897 41.0693478,46.1042642 41.0869565,45.4612406 L41.1644348,42.9206557 C41.2947391,38.7917676 41.3886522,35.8077181 40.9754348,33.249628 L40.9754348,33.248461 C40.7688261,31.97175 40.4823913,30.8059051 40.0996957,29.6832396 C38.4703043,24.9101609 33.0785217,20.7357593 28.3253478,20.5677096 C26.4646957,20.4941879 24.6709565,20.8256192 22.9687826,21.5328285 C18.264913,23.4840724 15.1963043,28.0144126 15.1540435,33.0734092 C15.1423043,34.2660954 15.3043043,35.4564475 15.6341739,36.6141233 C15.8525217,37.3796832 16.0755652,38.1989255 16.2011739,39.0508442 C16.4688261,40.8643807 16.5404348,43.9394571 16.4347826,49.0182929 C16.4206957,49.6531474 15.8983043,50.1607976 15.2608696,50.1607976 L15.2362174,50.1607976 C14.5882174,50.1467934 14.0740435,49.613469 14.0869565,48.9704454 C14.1902609,44.024649 14.1256957,41.0709418 13.878,39.3881106 C13.7735217,38.6750664 13.5798261,37.9701912 13.3755652,37.2501448 C12.9846522,35.8789058 12.7933043,34.4679884 12.8062174,33.05357 C12.8566957,27.0586298 16.4911304,21.6915421 22.0648696,19.3785245 C24.0828261,18.5417769 26.2146522,18.154329 28.4086957,18.2360198 C34.1373913,18.4379129 40.377913,23.2378329 42.321913,28.934018 C42.7480435,30.1803867 43.0661739,31.4699349 43.2927391,32.8761842 L43.2927391,32.8773512 C43.7423478,35.6571736 43.646087,38.734584 43.511087,42.9941774 L43.511087,42.9941774 L43.511087,42.9941774 Z" id="Path" fill="#FFFFFF"></path>
                            <path d="M39.9118696,49.0346311 C39.8895652,49.6648175 39.3695217,50.1607976 38.7391304,50.1607976 C38.7262174,50.1607976 38.7121304,50.1607976 38.6980435,50.1596306 C38.0500435,50.1386243 37.542913,49.5982978 37.5652174,48.9529402 C37.868087,40.3427264 37.2893478,36.0562917 36.7516957,33.2846384 L36.7516957,33.2811373 C36.5145652,32.0616099 36.1776522,30.9482805 35.7221739,29.8769636 C34.3076087,26.5521467 31.415087,24.4865356 28.173913,24.4865356 C27.5564348,24.4865356 26.9413043,24.5530553 26.3437826,24.6837606 C25.7098696,24.815633 25.0841739,24.424684 24.9444783,23.7956646 C24.8047826,23.1654781 25.205087,22.5434608 25.839,22.4045864 C26.6008696,22.2365366 27.3873913,22.1525118 28.173913,22.1525118 C32.3741739,22.1525118 36.0954783,24.7631174 37.8845217,28.9678613 C38.4045652,30.1920568 38.7884348,31.4582647 39.0572609,32.8388398 L39.0572609,32.8423409 C39.8907391,37.1392787 40.1548696,42.1329227 39.9118696,49.0346311 L39.9118696,49.0346311 L39.9118696,49.0346311 Z" id="Path" fill="#FFFFFF"></path>
                            <path d="M34.1890435,45.3853848 L34.1620435,45.3853848 C33.5269565,45.3853848 33.0033913,44.8812357 32.9893043,44.2452142 C32.8543043,38.4218248 32.265,35.114513 31.7942609,33.3651622 C31.7942609,33.3651622 31.7942609,33.3651622 31.7942609,33.3639952 C31.5547826,32.4747321 31.3493478,31.9927562 31.2507391,31.7593538 C30.672,30.4009519 29.3419565,29.524526 27.8593043,29.524526 C27.3697826,29.524526 26.8931739,29.619054 26.4400435,29.8081099 C25.1064783,30.3612735 24.2178261,31.6519887 24.179087,33.0967495 C24.165,33.5787254 24.2471739,34.0513652 24.422087,34.5018318 C24.8752174,35.8602337 26.2322609,40.9402365 25.824913,52.5356668 C25.8026087,53.1658532 25.2825652,53.6618333 24.6521739,53.6618333 C24.6392609,53.6618333 24.6251739,53.6618333 24.611087,53.6606663 C23.963087,53.6396601 23.4559565,53.0981665 23.4782609,52.453976 C23.882087,40.9565747 22.5015652,36.1578217 22.221,35.3117381 C21.9451304,34.6033618 21.8101304,33.8261319 21.8324348,33.0325638 C21.897,30.6716987 23.3503043,28.5594072 25.5361304,27.6538059 C26.2768696,27.3468818 27.0586957,27.1905022 27.8593043,27.1905022 C30.2869565,27.1905022 32.466913,28.6270938 33.411913,30.8490845 C33.5316522,31.1291674 33.7805217,31.7138403 34.0634348,32.762984 L34.0634348,32.7641511 C34.7853913,35.4506125 35.2256087,39.4021148 35.3359565,44.1926987 C35.3512174,44.8368892 34.8382174,45.3713807 34.1890435,45.3853848 L34.1890435,45.3853848 L34.1890435,45.3853848 Z" id="Path" fill="#FFFFFF"></path>
                            <path d="M34.0646087,51.3184734 C33.4166087,51.3184734 32.8906957,50.8049881 32.8906957,50.1596306 C32.8906957,49.7978569 32.886,49.4839307 32.8801304,49.1665034 C32.8742609,48.826903 32.8683913,48.4849685 32.8683913,48.0951865 L32.8695652,47.8197717 C32.873087,47.1767481 33.399,46.6597618 34.0434783,46.6597618 L34.0505217,46.6597618 C34.6996957,46.6644299 35.220913,47.1895853 35.2173913,47.8337758 L35.2173913,48.0951865 C35.2173913,48.4697973 35.222087,48.8012287 35.2279565,49.126825 C35.2338261,49.4582564 35.2385217,49.7838527 35.2385217,50.1421254 C35.2385217,50.787483 34.7126087,51.3184734 34.0646087,51.3184734 L34.0646087,51.3184734 L34.0646087,51.3184734 Z" id="Path" fill="#FFFFFF"></path>
                            <path d="M30.4196087,52.5356668 C30.3973043,53.1658532 29.876087,53.6618333 29.2468696,53.6618333 C29.2327826,53.6618333 29.2186957,53.6618333 29.2046087,53.6606663 C28.5566087,53.6396601 28.0494783,53.0993336 28.0729565,52.453976 C28.5706957,38.2281008 26.7910435,33.6744203 26.7734348,33.6300739 C26.5316087,33.0360648 26.8156957,32.3556969 27.4108696,32.1106244 C28.0083913,31.8608838 28.688087,32.1409667 28.9393043,32.7303077 C29.0214783,32.9228647 30.942,37.6212546 30.4196087,52.5356668 L30.4196087,52.5356668 L30.4196087,52.5356668 Z" id="Path" fill="#FFFFFF"></path>
                            <path d="M21.1304348,51.3686549 C21.1069565,51.9988413 20.586913,52.4948214 19.9565217,52.4948214 C19.9436087,52.4948214 19.9295217,52.4948214 19.9154348,52.4936544 C19.2674348,52.4726482 18.7603043,51.9311546 18.7826087,51.2869641 C18.9387391,46.866323 18.8694783,40.799028 17.658,36.9945692 C17.6216087,36.8825361 17.5957826,36.7996782 17.5805217,36.7413276 C17.2506522,35.5288023 17.1003913,34.2800995 17.1367826,33.0337308 L17.1367826,33.0302298 C17.2295217,29.7987738 18.6546522,25.608034 21.6293478,23.5319199 C22.1611304,23.1596431 22.8924783,23.2891814 23.2646087,23.8166708 C23.637913,24.3429931 23.5087826,25.0712086 22.9793478,25.4411513 C20.682,27.0446257 19.5573913,30.5339913 19.4834348,33.0967495 L19.4834348,33.0990835 C19.454087,34.1167179 19.5773478,35.1401873 19.8496957,36.1391495 L19.8966522,36.289694 C20.9496522,39.5981728 21.3652174,44.6723406 21.1304348,51.3686549 L21.1304348,51.3686549 L21.1304348,51.3686549 Z" id="Path" fill="#FFFFFF"></path>
                            <path d="M10.9009565,43.1097116 C10.7882609,43.142388 10.6755652,43.1587261 10.5652174,43.1587261 C10.0592609,43.1587261 9.59204348,42.8319628 9.4406087,42.3243126 C8.52378261,39.2644074 8.13756522,36.3130343 8.2256087,33.0337308 L8.2256087,33.0325638 C8.37586957,27.467084 9.97708696,23.3743733 13.2628696,20.1545874 C13.7242174,19.7006198 14.4673043,19.7076218 14.9227826,20.1662575 C15.3782609,20.6248932 15.3723913,21.3636117 14.9110435,21.8164124 C12.0842609,24.5857316 10.706087,28.1696252 10.5722609,33.0967495 C10.4912609,36.1216443 10.8457826,38.8419491 11.6898261,41.6591158 C11.8753043,42.2764651 11.5219565,42.9264908 10.9009565,43.1097116 L10.9009565,43.1097116 L10.9009565,43.1097116 Z" id="Path" fill="#FFFFFF"></path>
                        </g>
                    </g>
                </g>
            </g>
        </g>
    </g>
</svg>