<?xml version="1.0" encoding="UTF-8" standalone="no"?>
<svg width="116px" height="116px" viewBox="0 0 116 116" version="1.1" xmlns="http://www.w3.org/2000/svg" xmlns:xlink="http://www.w3.org/1999/xlink">
    <!-- Generator: sketchtool 39.1 (31720) - http://www.bohemiancoding.com/sketch -->
    <title>4CB172E8-EE64-4FF9-87CA-31DEDD8DBEF5</title>
    <desc>Created with sketchtool.</desc>
    <defs></defs>
    <g id="Page-4" stroke="none" stroke-width="1" fill="none" fill-rule="evenodd">
        <g id="2.0" transform="translate(-386.000000, -332.000000)">
            <g id="top">
                <g id="Group-12" transform="translate(386.000000, 332.000000)">
                    <g id="Group-16">
                        <g id="tax-filing">
                            <g id="Group-15">
                                <path d="M58,116 C90.0325155,116 116,90.0325155 116,58 C116,25.9674845 90.0325155,0 58,0 C25.9674845,0 0,25.9674845 0,58 C0,90.0325155 25.9674845,116 58,116 Z" id="Oval-2" fill-opacity="0.1" fill="#D8D8D8"></path>
                                <g id="taxes" transform="translate(40.000000, 33.000000)">
                                    <g>
                                        <rect id="Rectangle-path" fill="#2DBEA7" x="6.82290647" y="1.70747423" width="22.5323741" height="29.8969072"></rect>
                                        <path d="M33.8529496,30.2884021 L30.4293237,30.2884021 L30.4293237,0.255154639 L5.74730935,0.255154639 L5.74730935,30.2884021 L2.32523741,30.2884021 C1.58184668,30.2766682 0.889823427,30.6646128 0.514682517,31.3033898 C0.139541607,31.9421668 0.139541607,32.7325755 0.514682517,33.3713524 C0.889823427,34.0101294 1.58184668,34.3980741 2.32523741,34.3863402 L6.61959712,34.3863402 C6.61959712,34.3863402 10.6451223,49.8087629 18.0890935,49.8087629 C25.5330647,49.8087629 29.5585899,34.3878866 29.5585899,34.3878866 L33.8529496,34.3878866 C34.9905291,34.3878866 35.9127194,33.4701857 35.9127194,32.3381443 C35.9127194,31.2061029 34.9905291,30.2884021 33.8529496,30.2884021 L33.8529496,30.2884021 Z M25.811223,24.2809278 L26.6283453,25.9244845 L28.4552806,26.1881443 L27.1344173,27.468299 L27.4452086,29.2757732 L25.811482,28.4221649 L24.1772374,29.2757732 L24.4880288,27.468299 L23.1671655,26.1881443 L24.9943597,25.9244845 L25.811223,24.2809278 Z M21.3922878,3.09226804 L25.1829065,3.09226804 L25.1829065,22.6770619 L21.3922878,22.6770619 L21.3922878,3.09226804 L21.3922878,3.09226804 Z M17.3090072,25.9244845 L18.1258705,24.2809278 L18.9429928,25.9244845 L20.770446,26.1881443 L19.4482878,27.468299 L19.7590791,29.2757732 L18.1250935,28.4221649 L16.4908489,29.2757732 L16.8016403,27.468299 L15.480777,26.1881443 L17.3090072,25.9244845 Z M10.9952806,3.09226804 L14.7858993,3.09226804 L14.7858993,22.6770619 L10.9952806,22.6770619 L10.9952806,3.09226804 L10.9952806,3.09226804 Z M9.54984173,25.9244845 L10.366964,24.2809278 L11.1843453,25.9244845 L13.0115396,26.1881443 L11.6906763,27.468299 L12.0014676,29.2757732 L10.367223,28.4221649 L8.73323741,29.2757732 L9.04402878,27.468299 L7.72316547,26.1881443 L9.54984173,25.9244845 Z" id="Forma_1" fill="#FFFFFF"></path>
                                    </g>
                                </g>
                            </g>
                        </g>
                    </g>
                </g>
            </g>
        </g>
    </g>
</svg>