<?xml version="1.0" encoding="UTF-8" standalone="no"?>
<svg width="50px" height="50px" viewBox="0 0 50 50" version="1.1" xmlns="http://www.w3.org/2000/svg" xmlns:xlink="http://www.w3.org/1999/xlink">
    <!-- Generator: sketchtool 39.1 (31720) - http://www.bohemiancoding.com/sketch -->
    <title>861AB782-E05A-4099-B3FC-9AA27BB93D87</title>
    <desc>Created with sketchtool.</desc>
    <defs></defs>
    <g id="Page-4" stroke="none" stroke-width="1" fill="none" fill-rule="evenodd">
        <g id="2.0" transform="translate(-346.000000, -4426.000000)">
            <g id="pricing" transform="translate(0.000000, 3105.000000)">
                <g id="Group-7" transform="translate(272.000000, 1320.000000)">
                    <g id="tax-filing-card" transform="translate(0.000000, 1.000000)">
                        <g id="tax-icon" transform="translate(74.000000, 0.000000)">
                            <circle id="Oval" fill="#5D4A78" cx="25" cy="25" r="25"></circle>
                            <g id="taxes" transform="translate(16.000000, 13.000000)">
                                <rect id="Rectangle-path" fill="#2DBEA7" x="3.41145324" y="0.853737113" width="11.2661871" height="14.9484536"></rect>
                                <path d="M16.9264748,15.144201 L15.2146619,15.144201 L15.2146619,0.12757732 L2.87365468,0.12757732 L2.87365468,15.144201 L1.16261871,15.144201 C0.79092334,15.1383341 0.444911714,15.3323064 0.257341259,15.6516949 C0.0697708034,15.9710834 0.0697708034,16.3662877 0.257341259,16.6856762 C0.444911714,17.0050647 0.79092334,17.1990371 1.16261871,17.1931701 L3.30979856,17.1931701 C3.30979856,17.1931701 5.32256115,24.9043814 9.04454676,24.9043814 C12.7665324,24.9043814 14.779295,17.1939433 14.779295,17.1939433 L16.9264748,17.1939433 C17.4952645,17.1939433 17.9563597,16.7350929 17.9563597,16.1690722 C17.9563597,15.6030515 17.4952645,15.144201 16.9264748,15.144201 L16.9264748,15.144201 Z" id="Forma_1" fill="#5BC2A7"></path>
                                <polygon id="Forma_1-path" fill="#FFFFFF" points="4.77492086 12.9622423 5.18348201 12.1404639 5.59217266 12.9622423 6.50576978 13.0940722 5.84533813 13.7341495 6.00073381 14.6378866 5.18361151 14.2110825 4.36661871 14.6378866 4.52201439 13.7341495 3.86158273 13.0940722"></polygon>
                                <polygon id="Forma_1-path" fill="#FFFFFF" points="5.49764029 1.54613402 7.39294964 1.54613402 7.39294964 11.3385309 5.49764029 11.3385309"></polygon>
                                <polygon id="Forma_1-path" fill="#FFFFFF" points="8.6545036 12.9622423 9.06293525 12.1404639 9.4714964 12.9622423 10.385223 13.0940722 9.72414388 13.7341495 9.87953957 14.6378866 9.06254676 14.2110825 8.24542446 14.6378866 8.40082014 13.7341495 7.74038849 13.0940722"></polygon>
                                <polygon id="Forma_1-path" fill="#FFFFFF" points="10.6961439 1.54613402 12.5914532 1.54613402 12.5914532 11.3385309 10.6961439 11.3385309 10.6961439 1.54613402"></polygon>
                                <polygon id="Forma_1-path" fill="#FFFFFF" points="12.9056115 12.1404639 13.3141727 12.9622423 14.2276403 13.0940722 13.5672086 13.7341495 13.7226043 14.6378866 12.905741 14.2110825 12.0886187 14.6378866 12.2440144 13.7341495 11.5835827 13.0940722 12.4971799 12.9622423"></polygon>
                            </g>
                        </g>
                    </g>
                </g>
            </g>
        </g>
    </g>
</svg>