<?xml version="1.0" encoding="UTF-8" standalone="no"?>
<svg width="20px" height="16px" viewBox="0 0 20 16" version="1.1" xmlns="http://www.w3.org/2000/svg" xmlns:xlink="http://www.w3.org/1999/xlink">
    <!-- Generator: sketchtool 39.1 (31720) - http://www.bohemiancoding.com/sketch -->
    <title>DBA30ED7-1937-4680-B13C-317177095D16</title>
    <desc>Created with sketchtool.</desc>
    <defs>
        <polygon id="path-1" points="0 16 19.9401198 16 19.9401198 0 0 0"></polygon>
    </defs>
    <g id="Page-4" stroke="none" stroke-width="1" fill="none" fill-rule="evenodd">
        <g id="2.0" transform="translate(-1120.000000, -5608.000000)">
            <g id="get-started" transform="translate(0.000000, 4698.000000)">
                <g id="Group-19" transform="translate(208.000000, 490.000000)">
                    <g id="footer" transform="translate(0.000000, 388.000000)">
                        <g id="foot" transform="translate(0.000000, 25.000000)">
                            <g id="social-bar" transform="translate(912.000000, 7.000000)">
                                <g id="twitter">
                                    <mask id="mask-2" fill="white">
                                        <use xlink:href="#path-1"></use>
                                    </mask>
                                    <g id="Clip-2"></g>
                                    <path d="M19.9684303,1.89538739 C19.2307628,2.2196973 18.4419667,2.4358991 17.6166503,2.52958559 C18.4638789,2.03231712 19.1139049,1.23956757 19.4206541,0.295481081 C18.6245612,0.756713514 17.7481163,1.09543063 16.8132533,1.2756036 C16.0682744,0.490061261 15.0019381,0 13.8260554,0 C11.5619169,0 9.72869678,1.80890811 9.72869678,4.04301261 C9.72869678,4.36011532 9.76521715,4.67001081 9.83825058,4.96548468 C6.42744196,4.79252613 3.41102993,3.18540541 1.3879156,0.742299099 C1.03733908,1.34046847 0.832836718,2.03231712 0.832836718,2.77461622 C0.832836718,4.17994234 1.55589979,5.41230991 2.65875275,6.14019459 C1.98681527,6.11857297 1.35870077,5.93840721 0.803622616,5.63571892 L0.803622616,5.68616937 C0.803622616,7.64641441 2.21322912,9.27515387 4.09027002,9.64990703 C3.7469983,9.74359568 3.3818151,9.79404324 3.00932855,9.79404324 C2.74639652,9.79404324 2.49076857,9.76521658 2.23513988,9.7219755 C2.75369986,11.3290926 4.27286162,12.4965939 6.06225949,12.5326277 C4.65995559,13.6136483 2.89246995,14.2622602 0.971606804,14.2622602 C0.642941917,14.2622602 0.314277104,14.24064 -0.00708401021,14.2046061 C1.8042244,15.3504872 3.95880474,16.0207197 6.27406519,16.0207197 C13.8114473,16.0207197 17.9307108,9.85890378 17.9307108,4.51866667 C17.9307108,4.3457009 17.9234067,4.16552793 17.9161027,3.99256937 C18.7268109,3.41602162 19.4206541,2.70255135 19.9684303,1.89538739 L19.9684303,1.89538739 Z" id="Fill-1" fill="#FFFFFF" mask="url(#mask-2)"></path>
                                </g>
                            </g>
                        </g>
                    </g>
                </g>
            </g>
        </g>
    </g>
</svg>